<?xml version="1.0" encoding="UTF-8" standalone="no"?>
<!-- Uploaded to: SVG Repo, www.svgrepo.com, Generator: SVG Repo Mixer Tools -->

<svg
   width="800px"
   height="800px"
   viewBox="0 0 100 100"
   version="1.1"
   id="svg7"
   sodipodi:docname="gimp.svg"
   inkscape:export-filename="gimp.png"
   inkscape:export-xdpi="96"
   inkscape:export-ydpi="96"
   inkscape:version="1.3 (0e150ed6c4, 2023-07-21)"
   xmlns:inkscape="http://www.inkscape.org/namespaces/inkscape"
   xmlns:sodipodi="http://sodipodi.sourceforge.net/DTD/sodipodi-0.dtd"
   xmlns="http://www.w3.org/2000/svg"
   xmlns:svg="http://www.w3.org/2000/svg">
  <defs
     id="defs7" />
  <sodipodi:namedview
     id="namedview7"
     pagecolor="#505050"
     bordercolor="#ffffff"
     borderopacity="1"
     inkscape:showpageshadow="0"
     inkscape:pageopacity="0"
     inkscape:pagecheckerboard="1"
     inkscape:deskcolor="#505050"
     inkscape:zoom="0.95375"
     inkscape:cx="400"
     inkscape:cy="399.47575"
     inkscape:window-width="1920"
     inkscape:window-height="1060"
     inkscape:window-x="0"
     inkscape:window-y="20"
     inkscape:window-maximized="1"
     inkscape:current-layer="svg7" />
  <path
     style="fill:#6B6551;stroke:#999;stroke-width:2;stroke-linejoin:round"
     d="M 16,37 19,36 19,15 C 19,42 77,32 77,9 L 77,36 C 75,72 40,76 17,50 z"
     id="path1" />
  <path
     style="fill:#333;stroke:#000000;stroke-width:2;"
     transform="rotate(45 10 45)"
     d="M 17,38 A 10 7 0 1 1 16,37 z"
     id="path2" />
  <g
     style="fill:#FFF;stroke:#000000;stroke-width:2;"
     id="g3">
    <ellipse
       cx="30"
       cy="38"
       rx="7"
       ry="7"
       id="ellipse2" />
    <ellipse
       cx="50"
       cy="38"
       rx="10"
       ry="10"
       id="ellipse3" />
  </g>
  <g
     style="fill:#000000;stroke:none;"
     id="g5">
    <path
       d="M 40,57 C 55,57 56,54 57,49 C 58,56 57,61 40,57 z"
       id="path3" />
    <ellipse
       cx="32"
       cy="38"
       rx="4"
       ry="4"
       id="ellipse4" />
    <ellipse
       cx="52"
       cy="38"
       rx="6"
       ry="6"
       id="ellipse5" />
    <path
       d="M 96,72 96,88 83,76 C 78,72 89,61 96,72 z"
       id="path5" />
  </g>
  <path
     style="fill:#DE872B;stroke:#653A0A;stroke-width:2;"
     d="M 57,53 55,56 72,67 75,61 z"
     id="path6" />
  <path
     style="fill:#BBB;stroke:#999;stroke-width:2;"
     d="M 73.5,68 76.5,62 85,67 81,72 z"
     id="path7" />
</svg>
