<?xml version="1.0" encoding="UTF-8" standalone="no"?>
<svg
   enable-background="new 0 0 1920 1080"
   viewBox="0 0 1920 1080"
   version="1.1"
   id="svg78"
   sodipodi:docname="header-right.svg"
   inkscape:version="1.2.2 (b0a8486541, 2022-12-01)"
   xmlns:inkscape="http://www.inkscape.org/namespaces/inkscape"
   xmlns:sodipodi="http://sodipodi.sourceforge.net/DTD/sodipodi-0.dtd"
   xmlns:xlink="http://www.w3.org/1999/xlink"
   xmlns="http://www.w3.org/2000/svg"
   xmlns:svg="http://www.w3.org/2000/svg">
  <defs
     id="defs82">
    <linearGradient
       inkscape:collect="always"
       id="linearGradient1313">
      <stop
         style="stop-color:#141e30;stop-opacity:1;"
         offset="0"
         id="stop1309" />
      <stop
         style="stop-color:#243b55;stop-opacity:1;"
         offset="1"
         id="stop1311" />
    </linearGradient>
    <linearGradient
       inkscape:collect="always"
       xlink:href="#linearGradient1313"
       id="linearGradient1315"
       x1="776.8"
       y1="565.85"
       x2="1360.8"
       y2="565.85"
       gradientUnits="userSpaceOnUse" />
    <linearGradient
       inkscape:collect="always"
       xlink:href="#linearGradient1313"
       id="linearGradient1323"
       x1="500.10001"
       y1="381.35001"
       x2="1130.3"
       y2="381.35001"
       gradientUnits="userSpaceOnUse" />
    <linearGradient
       inkscape:collect="always"
       xlink:href="#linearGradient1313"
       id="linearGradient1331"
       x1="1139.3"
       y1="161"
       x2="1403.5"
       y2="161"
       gradientUnits="userSpaceOnUse" />
    <linearGradient
       inkscape:collect="always"
       xlink:href="#linearGradient1313"
       id="linearGradient1339"
       x1="1217.7889"
       y1="161.05"
       x2="1325.1288"
       y2="161.05"
       gradientUnits="userSpaceOnUse" />
    <linearGradient
       inkscape:collect="always"
       xlink:href="#linearGradient1313"
       id="linearGradient1341"
       x1="1436.8877"
       y1="272.75"
       x2="1519.6123"
       y2="272.75"
       gradientUnits="userSpaceOnUse" />
    <linearGradient
       inkscape:collect="always"
       xlink:href="#linearGradient1313"
       id="linearGradient1343"
       x1="1374.3"
       y1="272.79999"
       x2="1582.4"
       y2="272.79999"
       gradientUnits="userSpaceOnUse" />
    <linearGradient
       inkscape:collect="always"
       xlink:href="#linearGradient1313"
       id="linearGradient1345"
       x1="1603.5227"
       y1="167.27332"
       x2="1652.5723"
       y2="167.27332"
       gradientUnits="userSpaceOnUse" />
    <linearGradient
       inkscape:collect="always"
       xlink:href="#linearGradient1313"
       id="linearGradient1347"
       x1="1566.3643"
       y1="167.29161"
       x2="1689.5942"
       y2="167.29161"
       gradientUnits="userSpaceOnUse" />
    <linearGradient
       inkscape:collect="always"
       xlink:href="#linearGradient1313"
       id="linearGradient1349"
       x1="551.20001"
       y1="750.40002"
       x2="762"
       y2="750.40002"
       gradientUnits="userSpaceOnUse" />
    <linearGradient
       inkscape:collect="always"
       xlink:href="#linearGradient1313"
       id="linearGradient1351"
       x1="614.51721"
       y1="750.34998"
       x2="698.78278"
       y2="750.34998"
       gradientUnits="userSpaceOnUse" />
    <linearGradient
       inkscape:collect="always"
       xlink:href="#linearGradient1313"
       id="linearGradient1353"
       x1="415.10001"
       y1="842.54999"
       x2="578.40002"
       y2="842.54999"
       gradientUnits="userSpaceOnUse" />
    <linearGradient
       inkscape:collect="always"
       xlink:href="#linearGradient1313"
       id="linearGradient1355"
       x1="464.28461"
       y1="842.45038"
       x2="529.21539"
       y2="842.45038"
       gradientUnits="userSpaceOnUse" />
    <linearGradient
       inkscape:collect="always"
       xlink:href="#linearGradient1313"
       id="linearGradient1357"
       x1="393.58429"
       y1="724.40002"
       x2="442.61572"
       y2="724.40002"
       gradientUnits="userSpaceOnUse" />
    <linearGradient
       inkscape:collect="always"
       xlink:href="#linearGradient1313"
       id="linearGradient1359"
       x1="356.29999"
       y1="724.45001"
       x2="479.79999"
       y2="724.45001"
       gradientUnits="userSpaceOnUse" />
    <linearGradient
       inkscape:collect="always"
       xlink:href="#linearGradient1313"
       id="linearGradient1627"
       x1="776.79999"
       y1="658"
       x2="1360.9"
       y2="658"
       gradientUnits="userSpaceOnUse" />
    <linearGradient
       inkscape:collect="always"
       xlink:href="#linearGradient1313"
       id="linearGradient1712"
       x1="500.10001"
       y1="381.29999"
       x2="1084.1"
       y2="381.29999"
       gradientUnits="userSpaceOnUse" />
    <linearGradient
       inkscape:collect="always"
       xlink:href="#linearGradient1313"
       id="linearGradient1720"
       x1="461.5"
       y1="1005.2"
       x2="1366.5"
       y2="1005.2"
       gradientUnits="userSpaceOnUse" />
  </defs>
  <sodipodi:namedview
     id="namedview80"
     pagecolor="#505050"
     bordercolor="#ffffff"
     borderopacity="1"
     inkscape:showpageshadow="0"
     inkscape:pageopacity="0"
     inkscape:pagecheckerboard="1"
     inkscape:deskcolor="#505050"
     showgrid="false"
     inkscape:zoom="0.67916666"
     inkscape:cx="870.18406"
     inkscape:cy="588.95706"
     inkscape:window-width="1918"
     inkscape:window-height="1055"
     inkscape:window-x="0"
     inkscape:window-y="23"
     inkscape:window-maximized="1"
     inkscape:current-layer="svg78" />
  <path
     fill="#2a94f4"
     d="m 466.3,715.7 c -0.7,-3.7 -1.8,-7.3 -3.3,-10.7 -0.9,-2.1 -0.6,-4.5 0.9,-6.3 l 6.1,-7.5 -9.2,-11.2 -8.5,4.5 c -2,1.1 -4.5,0.9 -6.4,-0.4 -3.1,-2.1 -6.4,-3.9 -9.9,-5.3 -2.1,-0.8 -3.6,-2.8 -3.8,-5.1 l -0.9,-9.6 -14.4,-1.4 -2.8,9.3 c -0.7,2.2 -2.5,3.8 -4.8,4.2 -3.7,0.7 -7.3,1.8 -10.7,3.3 -2.1,0.9 -4.5,0.6 -6.3,-0.9 l -7.5,-6.1 -11.2,9.2 4.5,8.5 c 1.1,2 0.9,4.5 -0.4,6.4 -2.1,3.1 -3.9,6.4 -5.3,9.9 -0.8,2.1 -2.8,3.6 -5.1,3.8 l -9.6,0.9 -1.4,14.4 9.3,2.8 c 2.2,0.7 3.8,2.5 4.2,4.8 0.7,3.7 1.8,7.3 3.3,10.7 0.9,2.1 0.6,4.6 -0.9,6.3 l -6.1,7.5 9.2,11.2 8.5,-4.5 c 2,-1.1 4.5,-0.9 6.4,0.4 3.1,2.1 6.4,3.9 9.9,5.3 2.1,0.8 3.6,2.8 3.8,5.1 l 0.9,9.6 14.4,1.4 2.8,-9.3 c 0.7,-2.2 2.5,-3.8 4.8,-4.2 3.7,-0.7 7.3,-1.8 10.7,-3.3 2.1,-0.9 4.5,-0.6 6.3,0.9 l 7.5,6.1 11.2,-9.2 -4.5,-8.5 c -1.1,-2 -0.9,-4.5 0.4,-6.4 2.1,-3.1 3.9,-6.4 5.3,-9.9 0.8,-2.1 2.8,-3.6 5.1,-3.8 l 9.6,-0.9 1.4,-14.4 -9.3,-2.8 c -2.1,-0.7 -3.8,-2.6 -4.2,-4.8 z m -51.8,45.4 c -20.2,-2 -35,-20 -33,-40.2 2,-20.2 20,-35 40.2,-33 20.2,2 35,20 33,40.2 -2,20.2 -20,34.9 -40.2,33 z"
     id="path2"
     style="opacity:0.1;fill:url(#linearGradient1359);fill-opacity:1.0" />
  <path
     fill="#2a94f4"
     d="m 393.7,722 c 1.3,-13.5 13.3,-23.3 26.8,-22 13.5,1.3 23.3,13.3 22,26.8 -1.3,13.5 -13.3,23.3 -26.8,22 -13.5,-1.3 -23.3,-13.3 -22,-26.8 z"
     id="path4"
     style="opacity:0.1;fill:url(#linearGradient1357);fill-opacity:1.0" />
  <path
     fill="#2a94f4"
     d="m 1674.1399,183.83889 c 1.2438,-3.5543 2.0912,-7.22199 2.4921,-10.91647 0.2706,-2.26866 1.7304,-4.19712 3.9294,-5.00596 l 9.0328,-3.44519 -2.3674,-14.29949 -9.6112,-0.35288 c -2.2821,-0.0474 -4.3472,-1.47058 -5.3426,-3.54641 -1.6347,-3.36866 -3.5926,-6.5775 -5.9237,-9.53994 -1.4186,-1.74282 -1.7177,-4.22487 -0.7409,-6.31673 l 4.0206,-8.76384 -11.7707,-8.41244 -7.0749,6.65404 c -1.7062,1.55525 -4.0651,2.0409 -6.2569,1.23731 -3.5543,-1.24379 -7.222,-2.09116 -10.9165,-2.49212 -2.2687,-0.27058 -4.1971,-1.73039 -5.006,-3.92942 l -3.4452,-9.03276 -14.2994,2.36743 -0.3529,9.61122 c -0.047,2.28205 -1.4706,4.34712 -3.5464,5.34256 -3.3687,1.63468 -6.5775,3.59257 -9.54,5.92365 -1.7428,1.41866 -4.2248,1.7177 -6.3167,0.7409 l -8.7638,-4.02058 -8.4125,11.77077 6.6541,7.07487 c 1.5552,1.70622 2.0408,4.06506 1.2373,6.25692 -1.2438,3.5543 -2.0912,7.22199 -2.4922,10.91648 -0.2705,2.26865 -1.7803,4.28371 -3.9294,5.00596 l -9.0327,3.44519 2.3674,14.29948 9.6112,0.35289 c 2.2821,0.0474 4.3471,1.47057 5.3426,3.54641 1.6347,3.36865 3.5925,6.5775 5.9236,9.53993 1.4187,1.74282 1.7177,4.22487 0.7409,6.31673 l -4.0206,8.76384 11.7708,8.41244 7.0749,-6.65404 c 1.7062,-1.55525 4.065,-2.04089 6.2569,-1.2373 3.5543,1.24378 7.222,2.09115 10.9165,2.49211 2.2686,0.27058 4.1971,1.73039 5.0059,3.92943 l 3.4452,9.03275 14.2995,-2.36743 0.3529,-9.61122 c 0.047,-2.28205 1.4706,-4.34711 3.5464,-5.34256 3.3687,-1.63468 6.5775,-3.59256 9.5399,-5.92365 1.7429,-1.41866 4.2249,-1.71769 6.3168,-0.7409 l 8.7638,4.02058 8.4125,-11.77077 -6.6541,-7.07487 c -1.4686,-1.65622 -1.9909,-4.15167 -1.2373,-6.25692 z m -67.5601,13.41755 c -16.4937,-11.83205 -20.3109,-34.82051 -8.4788,-51.31422 11.832,-16.49371 34.8205,-20.31089 51.3142,-8.47884 16.4937,11.83205 20.3109,34.82051 8.4788,51.31422 -11.832,16.49372 -34.7705,20.22429 -51.3142,8.47884 z"
     id="path2-6"
     style="opacity:0.1;fill:url(#linearGradient1347);fill-opacity:1.0" />
  <path
     fill="#2a94f4"
     d="m 1608.1165,152.99485 c 7.8758,-11.04134 23.1681,-13.52839 34.2094,-5.65256 11.0414,7.87583 13.5284,23.16814 5.6526,34.20948 -7.8758,11.04134 -23.1681,13.52839 -34.2095,5.65256 -11.0413,-7.87583 -13.5284,-23.16814 -5.6525,-34.20948 z"
     id="path4-7"
     style="opacity:0.1;fill:url(#linearGradient1345);fill-opacity:1.0" />
  <ellipse
     cx="914"
     cy="1005.2"
     fill="#2a94f4"
     opacity=".1"
     rx="452.5"
     ry="36.6"
     id="ellipse8"
     style="fill:url(#linearGradient1720);fill-opacity:1.0" />
  <path
     fill="#ffbe55"
     d="M776.8 888.5c0 8.5 6.9 15.4 15.4 15.4h553.3c8.5 0 15.4-6.9 15.4-15.4V412.1h-584v476.4z"
     opacity=".19"
     id="path10"
     style="fill:url(#linearGradient1627);fill-opacity:1.0" />
  <path
     fill="#ffbe55"
     d="M950.6 691.8c2.6 9 6.2 17.7 10.8 26 2.8 5 2.6 11.2-.6 16l-13.4 20.1 25.7 25.7 20.1-13.4c4.8-3.2 11-3.4 16-.6 8.2 4.6 16.9 8.2 26 10.8 5.5 1.6 9.7 6.1 10.9 11.8l4.7 23.7h36.3l4.8-23.8c1.1-5.6 5.3-10.2 10.9-11.8 9-2.6 17.7-6.2 26-10.8 5-2.8 11.2-2.6 16 .6l20.1 13.4 25.7-25.7-13.4-20.1c-3.2-4.8-3.4-11-.6-16 4.6-8.2 8.2-16.9 10.8-26 1.6-5.5 6.1-9.7 11.8-10.9l23.7-4.7v-36.3l-23.8-4.8c-5.6-1.1-10.2-5.3-11.8-10.9-2.6-9-6.2-17.7-10.8-26-2.8-5-2.6-11.2.6-16l13.4-20.1-25.7-25.7-20.1 13.4c-4.8 3.2-11 3.4-16 .6-8.2-4.6-16.9-8.2-26-10.8-5.5-1.6-9.7-6.1-10.9-11.8l-4.7-23.7h-36.3l-4.8 23.8c-1.1 5.6-5.3 10.2-10.9 11.8-9 2.6-17.7 6.2-26 10.8-5 2.8-11.2 2.6-16-.6L973 536.4l-25.7 25.7 13.4 20.1c3.2 4.8 3.4 11 .6 16-4.6 8.2-8.2 16.9-10.8 26-1.6 5.5-6.1 9.7-11.8 10.9l-23.7 4.7v36.3l23.8 4.8c5.7 1.1 10.3 5.3 11.8 10.9zm118.2-126.1c50.9 0 92.2 41.3 92.2 92.2 0 50.9-41.3 92.2-92.2 92.2-50.9 0-92.2-41.3-92.2-92.2 0-50.8 41.3-92.1 92.2-92.2zM776.8 335.2v46.1h584v-46.1c0-8.5-6.9-15.4-15.4-15.4H792.1c-8.5 0-15.3 6.9-15.3 15.4zm153.7 0h30.7V366h-30.7v-30.8zm-61.5 0h30.7V366H869v-30.8zm-61.5 0h30.7V366h-30.7v-30.8z"
     id="path12"
     style="fill:url(#linearGradient1315);fill-opacity:1" />
  <path
     fill="#ffbe55"
     d="M1130.3 658c0 33.9-27.5 61.5-61.5 61.5s-61.5-27.5-61.5-61.5c0-33.9 27.5-61.5 61.5-61.5 33.9 0 61.5 27.5 61.5 61.5zM1084.2 58.6c0-8.5-6.9-15.4-15.4-15.4H515.5c-8.5 0-15.4 6.9-15.4 15.4v46.1h584V58.6zM561.6 89.3h-30.7V58.6h30.7v30.7zm61.5 0h-30.7V58.6h30.7v30.7zm61.5 0h-30.7V58.6h30.7v30.7z"
     id="path14"
     style="fill:url(#linearGradient1323);fill-opacity:1.0" />
  <path
     fill="#ffbe55"
     d="M746 335.2c0-25.5 20.6-46.1 46.1-46.1h292V135.4h-584v476.4c0 8.5 6.9 15.4 15.4 15.4H746v-292zm123-122.9h30.7V243H869v-30.7zm-61.5 0h30.7V243h-30.7v-30.7zm-61.5 0h30.7V243H746v-30.7zm-61.4 368.8h-123v-30.7h123v30.7zm0-61.5h-123v-30.7h123v30.7zm0-61.4h-123v-30.7h123v30.7zm0-61.5h-123V366h123v30.7zm0-61.5h-123v-30.7h123v30.7zm0-92.2v-30.7h30.7V243h-30.7z"
     opacity=".19"
     id="path16"
     style="fill:url(#linearGradient1712);fill-opacity:1.0" />
  <path
     fill="#fcd2b1"
     d="m866.3 767.1.6-16.2 11.5 3.5 2.2 20.2s-11 .7-14.3-7.5z"
     id="path18" />
  <path
     fill="#0e538c"
     d="M867.3 767.2c2.7 1.1 7.2 2.1 12.8.8l-.7-4.6s3.2 1.9 4 6.1c.8 4.1 1 3 6.2 6.2 5.3 3.2 4.9 10.4 4.9 10.4l-39.2-1s-1.1-7.9 6-16.3c1.4-1.8 3.9-2.5 6-1.6z"
     id="path20"
     style="fill:#141e30;fill-opacity:1" />
  <path
     fill="#ffbe55"
     d="M804 529s-5.1 19.9 2.1 32.4 20.2-15.2 20.2-15.2S824 519.6 804 529z"
     id="path22"
     style="fill:#141e30;fill-opacity:1" />
  <path
     fill="#ffe3ca"
     d="M800.4 434.6s-26.4 35.9-30.8 57.6c-4.5 21.7.3 69.1.3 69.1h10.8s5.7-60.5 9.3-69.1c3.6-8.8 27-49.4 27-49.4l-16.6-8.2z"
     id="path24" />
  <path
     fill="#d3d3d3"
     d="M795.9 784.3h100.2v11.5H795.9zM774.5 863.7h107.7v11.5H774.5zM764.8 940.5h107.7V952H764.8z"
     id="path26" />
  <path
     fill="#d3d3d3"
     d="M754 1016.9h-12l88.4-415.8h6.7zM879.3 1016.9h-12l70.1-427.5 5.9 2.8z"
     id="path28" />
  <path
     fill="#f7f7f7"
     d="m855 1016.9 64.5-415.1-89.1-.7-88.4 415.8h-13.8L818 589.4h119.4l-66.3 427.5H853"
     id="path30" />
  <path
     fill="#fcd2b1"
     d="m814.5 767.1.6-16.2 11.5 3.5 2.2 20.2c-.1 0-11 .7-14.3-7.5z"
     id="path32" />
  <path
     fill="#ffe3ca"
     d="M928 401.6s28.5-2.1 31.9-15.3c3.4-13.2 2.8-48.8 2.8-48.8h9.9s6.8 33.1 6.4 48.8c-.4 15.7-19.5 42.5-51 40.8-31.4-1.7 0-25.5 0-25.5z"
     id="path34" />
  <path
     fill="#2a94f4"
     d="M835.7 399.9s-16.5 1.7-23.3 8.9c-3.3 3.5-23.8 28.9-23 34.4l24.1 15 19.7-27.3 2.5-31z"
     id="path36"
     style="fill:#243b55;fill-opacity:1" />
  <path
     fill="#0b4870"
     d="M809.9 522.2s-7.1 21-.4 44 6.7 69.4 6.1 81.5-11.9 47.1-2.3 108.9h14.8s9-64.8 14.2-92.4c4.9-25.9 11.1-90.5 11.1-90.5s18.6 61.3 15.5 77.1c-3.4 17.4-3.8 105.7-3.8 105.7H880s16.7-76 17.7-96.4c1.1-20.4-1.2-134.8-1.2-134.8s-49.6-33.7-86.6-3.1z"
     id="path38"
     style="fill:#243b55;fill-opacity:1" />
  <path
     fill="#fcd2b1"
     d="m860.7 360-15.1 46.2 27.3 5.4 6-47.9z"
     id="path40" />
  <path
     fill="#2a94f4"
     d="M876.2 397.3s18.5 3.8 20.4 28c1.9 24.2 4.5 127.4 4.5 136.3-.6 4.1-72.5 17.8-93.9-3-5.4-5.3 12.3-95.1 9.8-118.7-2.6-23.5 11.4-53.4 59.2-42.6z"
     id="path42"
     style="fill:#141e30;fill-opacity:1" />
  <path
     fill="#2a94f4"
     d="M897.7 445.7s7.4-16.9 30.3-18.6c0 0 5.5-15.7 0-25.5 0 0-41.5-8.5-57.3-5.3s27 49.4 27 49.4z"
     id="path44"
     style="fill:#243b55;fill-opacity:1" />
  <path
     fill="#ffe3ca"
     d="M972.5 346.4s3.1-16.6-2.4-26c-3.3-5.6-6.9-8.2-10.5-7.2-2.4.7-3.4 4.9-2.8 7.3.8 3.1 3.4 11.6 4.8 14 0 0-2.5 0-5.1-5.6-2.5-5.5-4.4 2.6-2.4 6.4 3 5.5 12.9 20.6 18.4 11.1z"
     id="path46" />
  <path
     fill="#0e538c"
     d="M815.4 767.2c2.7 1.1 7.2 2.1 12.8.8l-.7-4.6s3.2 1.9 4 6.1c.8 4.1 1 3 6.2 6.2 5.3 3.2 4.9 10.4 4.9 10.4l-39.2-1s-1.1-7.9 6-16.3c1.5-1.8 3.9-2.5 6-1.6z"
     id="path48"
     style="fill:#141e30;fill-opacity:1" />
  <path
     fill="#0b4870"
     d="M899.4 353.1c-.7-5.8 11.9-9.7-12.2-26.7-12.3-8.6-33.7-4.8-40.3 8.2s-3.1 14.3-8.2 15.2c-5.1 1 .3 41.2 31.1 40.7 30.9-.5 29.6-37.4 29.6-37.4z"
     id="path50"
     style="fill:#243b55;fill-opacity:1" />
  <path
     fill="#ffbe55"
     d="M805.7 515h93.8c3.8 0 6.9 2.8 7.3 6.5 1.6 14.1 3.3 46.1-13.2 48.4-21.2 3-28-19.9-28-41.2l-61.6.3s-2.1-10.2 1.7-14z"
     id="path52"
     style="fill:#243b55;fill-opacity:1" />
  <path
     fill="#ffe3ca"
     d="M780 555.7s-1.8 21.3 5.1 27.1c6.9 5.9-12.2 8.5-16.9-2.3s1.7-24.8 1.7-24.8H780z"
     id="path54" />
  <path
     fill="#ffe3ca"
     d="M778.2 558.5s6.4 1.1 8.8 8c1.4 3.9 2.2 8.1 2.6 11 .3 1.9-1.9 3.2-3.5 2-1.6-1.2-3.1-3-2.9-6.1.5-6.5-7.3-4.6-7.3-4.6s-2.6-7.7 2.3-10.3z"
     id="path56" />
  <path
     fill="#f7f7f7"
     d="M882.9 529.7H878v-14.5c0-.8.7-1.5 1.5-1.5h2c.8 0 1.5.7 1.5 1.5v14.5zM890.2 529.7h-4.9v-9.6c0-.8.7-1.5 1.5-1.5h2c.8 0 1.5.7 1.5 1.5v9.6zM899.5 529.7h-6.8v-20.9c0-1.1.9-2 2-2h2.8c1.1 0 2 .9 2 2v20.9z"
     id="path58"
     style="fill:#ffffff;fill-opacity:1" />
  <path
     fill="#161616"
     d="M867.2 529.7H905v3.2h-37.8z"
     opacity=".32"
     id="path60" />
  <path
     fill="#ffbe55"
     d="M557.4 819.5c-1.8-4.6-4-9.1-6.8-13.2-1.7-2.5-1.8-5.8-.4-8.4l6.2-11.2-14.6-12.4-10 8c-2.4 1.9-5.6 2.3-8.4 1-4.5-2-9.3-3.6-14.1-4.5-3-.6-5.4-2.8-6.2-5.7l-3.5-12.2-19.1 1.6-1.5 12.7c-.3 3-2.4 5.6-5.2 6.7-4.6 1.8-9.1 4-13.2 6.8-2.5 1.7-5.8 1.8-8.4.4l-11.2-6.2-12.4 14.6 8 10c1.9 2.4 2.3 5.6 1 8.4-2 4.5-3.6 9.3-4.5 14.1-.6 3-2.8 5.4-5.7 6.2l-12.3 3.5 1.6 19.1 12.7 1.5c3 .3 5.6 2.4 6.7 5.2 1.8 4.6 4 9.1 6.8 13.2 1.7 2.5 1.8 5.8.4 8.4l-6.2 11.2 14.6 12.4 10-8c2.4-1.9 5.6-2.3 8.4-1 4.5 2 9.3 3.6 14.1 4.5 3 .6 5.4 2.8 6.2 5.7l3.5 12.3 19.1-1.6 1.5-12.7c.3-3 2.4-5.6 5.2-6.7 4.6-1.8 9.1-4 13.2-6.8 2.5-1.7 5.8-1.8 8.4-.4l11.2 6.2 12.4-14.6-8-10c-1.9-2.4-2.3-5.6-1-8.4 2-4.5 3.6-9.3 4.5-14.1.6-3 2.8-5.4 5.7-6.2l12.3-3.5-1.6-19.1-12.7-1.5c-3-.4-5.6-2.5-6.7-5.3zM500.8 891c-26.8 2.2-50.3-17.7-52.6-44.5-2.2-26.8 17.7-50.3 44.5-52.6 26.8-2.2 50.3 17.7 52.6 44.5 2.2 26.8-17.7 50.3-44.5 52.6z"
     id="path62"
     style="fill:url(#linearGradient1353);fill-opacity:1.0;opacity:0.5" />
  <path
     fill="#ffbe55"
     d="M464.4 845.2c-1.5-17.9 11.8-33.6 29.6-35.1 17.9-1.5 33.6 11.8 35.1 29.6 1.5 17.9-11.8 33.6-29.6 35.1-17.9 1.5-33.6-11.7-35.1-29.6z"
     id="path64"
     style="fill:url(#linearGradient1355);fill-opacity:1.0;opacity:0.5" />
  <path
     fill="#cce9ff"
     d="M713.1 687.9c-4.8-4.3-10-8.1-15.7-11.2-3.5-1.9-5.5-5.6-5.4-9.5l.5-16.6-24.2-5.6-6.8 15.1c-1.6 3.6-5.1 6-9.1 6.2-6.4.3-12.8 1.4-19 3.2-3.8 1.1-7.9 0-10.6-2.9l-11.3-12.1-21.1 13.1 5.8 15.6c1.4 3.7.6 7.9-2.1 10.8-4.3 4.8-8.1 10-11.2 15.7-1.9 3.5-5.6 5.5-9.5 5.4l-16.6-.5-5.6 24.2 15.1 6.8c3.6 1.6 6 5.1 6.2 9.1.3 6.4 1.4 12.8 3.1 19 1.1 3.8 0 7.9-2.9 10.6l-12.1 11.3 13.1 21.1 15.6-5.9c3.7-1.4 7.8-.6 10.8 2.1 4.8 4.3 10 8.1 15.7 11.2 3.5 1.9 5.6 5.6 5.4 9.5l-.5 16.6 24.2 5.6 6.8-15.1c1.6-3.6 5.1-6 9.1-6.2 6.4-.3 12.8-1.4 19-3.1 3.8-1.1 7.9 0 10.6 2.9l11.3 12.1 21.1-13.1-5.8-15.6c-1.4-3.7-.6-7.9 2.1-10.8 4.3-4.8 8.1-10 11.2-15.7 1.9-3.5 5.6-5.5 9.5-5.4l16.6.5 5.6-24.2-15.1-6.8c-3.6-1.6-6-5.1-6.2-9.1-.3-6.4-1.4-12.8-3.1-19-1.1-3.8 0-7.9 2.9-10.6l12.1-11.3-13.1-21.1-15.6 5.8c-3.7 1.3-7.8.5-10.8-2.1zm-23 116.1c-29.6 18.5-68.6 9.4-87.1-20.2s-9.4-68.6 20.2-87.1 68.6-9.4 87.1 20.2c18.4 29.7 9.4 68.6-20.2 87.1z"
     id="path66"
     style="fill:url(#linearGradient1349);fill-opacity:1.0" />
  <path
     fill="#cce9ff"
     d="M620.9 772.6c-12.3-19.7-6.3-45.7 13.5-58 19.8-12.3 45.7-6.3 58 13.5 12.3 19.7 6.3 45.7-13.5 58-19.7 12.3-45.7 6.3-58-13.5z"
     id="path68"
     style="fill:url(#linearGradient1351);fill-opacity:1.0" />
  <path
     fill="#ffbe55"
     d="M1412.8 222.4c-3.9 5-7.1 10.4-9.7 16.2-1.6 3.5-5 5.9-8.9 6.1l-16.3.8-3.6 24.1 15.3 5.5c3.6 1.3 6.2 4.6 6.7 8.4.8 6.3 2.3 12.4 4.6 18.3 1.4 3.6.6 7.7-2 10.6l-10.9 12 14.5 19.6 14.8-6.9c3.5-1.6 7.6-1.2 10.7 1.2 5 3.9 10.4 7.1 16.2 9.7 3.5 1.6 5.9 5 6.1 8.9l.8 16.3 24.1 3.6 5.5-15.3c1.3-3.6 4.6-6.2 8.4-6.7 6.3-.8 12.4-2.3 18.3-4.6 3.6-1.4 7.7-.6 10.6 2l12 11 19.6-14.5-6.9-14.8c-1.6-3.5-1.2-7.6 1.2-10.7 3.9-5 7.1-10.4 9.7-16.2 1.6-3.5 5-5.9 8.9-6.1l16.3-.8 3.6-24.1-15.3-5.5c-3.6-1.3-6.2-4.6-6.7-8.4-.8-6.3-2.3-12.4-4.6-18.3-1.4-3.6-.6-7.7 2-10.6l11-12-14.5-19.6-14.8 6.9c-3.5 1.6-7.6 1.2-10.7-1.2-5-3.9-10.4-7.1-16.2-9.7-3.5-1.6-5.9-5-6.1-8.9l-.8-16.3-24.1-3.6-5.5 15.3c-1.3 3.6-4.6 6.2-8.4 6.7-6.3.8-12.4 2.3-18.3 4.6-3.6 1.4-7.7.6-10.6-2l-12-11-19.6 14.5 6.9 14.8c1.5 3.5 1.1 7.6-1.3 10.7zm115.3 13.5c20.3 27.5 14.5 66.4-13 86.7-27.5 20.3-66.4 14.5-86.7-13-20.3-27.5-14.5-66.4 13-86.7 27.6-20.3 66.4-14.5 86.7 13z"
     id="path70"
     style="fill:url(#linearGradient1343);fill-opacity:1.0;opacity:0.5" />
  <path
     fill="#ffbe55"
     d="M1502.8 306c-18.4 13.6-44.2 9.7-57.8-8.7-13.6-18.4-9.7-44.2 8.7-57.8 18.4-13.6 44.2-9.7 57.8 8.7 13.6 18.3 9.7 44.2-8.7 57.8z"
     id="path72"
     style="fill:url(#linearGradient1341);fill-opacity:1.0;opacity:0.5" />
  <path
     fill="#cce9ff"
     d="M1166 141.6c-1.5 8.1-2 16.3-1.7 24.5.2 5-2.3 9.8-6.7 12.3l-18.3 10.5 10.1 30 21-2.7c5-.6 9.9 1.6 12.7 5.7 4.7 6.8 10.1 13 16.1 18.5 3.7 3.4 5.2 8.6 3.9 13.4l-5.5 20.3 28.3 14.1 13-16.7c3.1-4 8.1-5.9 13-5 8.1 1.5 16.3 2.1 24.5 1.7 5-.2 9.8 2.3 12.3 6.7l10.5 18.3 30-10.1-2.7-21c-.6-5 1.6-9.9 5.7-12.7 6.8-4.6 13-10.1 18.5-16.1 3.4-3.7 8.6-5.2 13.4-3.9l20.4 5.5 14.1-28.4-16.8-13c-4-3.1-5.9-8.1-5-13 1.5-8.1 2.1-16.3 1.7-24.5-.2-5 2.4-9.8 6.7-12.3l18.3-10.5-10.1-30-21 2.7c-5 .6-9.9-1.6-12.7-5.7-4.6-6.8-10.1-13-16.1-18.5-3.7-3.4-5.2-8.6-3.9-13.4l5.5-20.4-28.2-14.1-13 16.7c-3.1 4-8.1 5.9-13 5-8.1-1.5-16.3-2.1-24.5-1.7-5 .2-9.8-2.3-12.3-6.7l-10.5-18.3-30 10.1 2.7 21c.6 5-1.6 9.9-5.7 12.7-6.8 4.6-13 10.1-18.5 16.1-3.4 3.7-8.6 5.2-13.4 3.9l-20.4-5.5-14.1 28.4 16.7 13c4.1 3.1 6 8.1 5 13.1zm141.3-52.7c39.8 19.8 56 68.1 36.3 107.9-19.8 39.8-68.1 56-107.9 36.3-39.8-19.8-56-68.1-36.3-107.9 19.8-39.8 68.1-56 107.9-36.3z"
     id="path74"
     style="fill:url(#linearGradient1331);fill-opacity:1.0" />
  <path
     fill="#cce9ff"
     d="M1319.5 184.9c-13.2 26.5-45.4 37.4-71.9 24.2-26.5-13.2-37.4-45.4-24.2-71.9 13.2-26.5 45.4-37.4 71.9-24.2 26.6 13.1 37.4 45.3 24.2 71.9z"
     id="path76"
     style="fill:url(#linearGradient1339);fill-opacity:1.0" />
</svg>
