<?xml version="1.0" encoding="UTF-8" standalone="no"?>
<!-- Created with Inkscape (http://www.inkscape.org/) -->

<svg
   width="60mm"
   height="11mm"
   viewBox="0 0 60.000001 11"
   version="1.1"
   id="svg5"
   inkscape:version="1.3 (0e150ed6c4, 2023-07-21)"
   sodipodi:docname="logo-primary-color.svg"
   inkscape:export-filename="logo-primary-color.png"
   inkscape:export-xdpi="96"
   inkscape:export-ydpi="96"
   xmlns:inkscape="http://www.inkscape.org/namespaces/inkscape"
   xmlns:sodipodi="http://sodipodi.sourceforge.net/DTD/sodipodi-0.dtd"
   xmlns="http://www.w3.org/2000/svg"
   xmlns:svg="http://www.w3.org/2000/svg">
  <sodipodi:namedview
     id="namedview7"
     pagecolor="#505050"
     bordercolor="#ffffff"
     borderopacity="1"
     inkscape:showpageshadow="0"
     inkscape:pageopacity="0"
     inkscape:pagecheckerboard="1"
     inkscape:deskcolor="#505050"
     inkscape:document-units="mm"
     showgrid="false"
     showguides="true"
     inkscape:zoom="2.8284273"
     inkscape:cx="116.14228"
     inkscape:cy="104.29825"
     inkscape:window-width="1920"
     inkscape:window-height="1060"
     inkscape:window-x="1920"
     inkscape:window-y="20"
     inkscape:window-maximized="1"
     inkscape:current-layer="layer3" />
  <defs
     id="defs2" />
  <g
     inkscape:label="Layer 1"
     inkscape:groupmode="layer"
     id="layer1" />
  <g
     inkscape:groupmode="layer"
     id="layer3"
     inkscape:label="laptop">
    <path
       style="font-weight:500;font-size:13.3295px;font-family:Poppins;-inkscape-font-specification:'Poppins Medium';fill:#141e30;stroke-width:1.11079"
       d="m 0,6.8224837 c 0,2.266015 1.5328925,3.8255663 3.46567,3.8255663 1.1996551,0 2.0794021,-0.559839 2.5459346,-1.2263138 V 10.528085 H 7.5444971 V 0.66425461 H 6.0116046 V 4.2099017 C 5.4517656,3.5167677 4.4387236,3.0635646 3.4789995,3.0635646 1.5328925,3.0635646 0,4.5564687 0,6.8224837 Z m 6.0116046,0.026659 c 0,1.5862105 -1.0796895,2.479287 -2.2260265,2.479287 -1.1330076,0 -2.2260266,-0.9197355 -2.2260266,-2.505946 0,-1.5862105 1.093019,-2.4392985 2.2260266,-2.4392985 1.146337,0 2.2260265,0.8930765 2.2260265,2.4659575 z M 9.5439155,3.1835301 V 10.528085 H 11.063479 V 3.1835301 Z M 10.317027,2.2104766 c 0.53318,0 0.959724,-0.426544 0.959724,-0.9730535 0,-0.54650949 -0.426544,-0.9730535 -0.959724,-0.9730535 -0.54651,0 -0.973054,0.42654401 -0.973054,0.9730535 0,0.5465095 0.426544,0.9730535 0.973054,0.9730535 z m 4.265438,2.0660726 V 0.66425461 H 13.062902 V 10.528085 h 1.519563 V 9.4617247 c 0.479862,0.6398163 1.34628,1.1863253 2.559264,1.1863253 1.932778,0 3.452341,-1.5595513 3.452341,-3.8255663 0,-2.266015 -1.506234,-3.7589191 -3.452341,-3.7589191 -1.159666,0 -2.079402,0.5465096 -2.559264,1.2129846 z m 4.465383,2.5459345 c 0,1.5862105 -1.093019,2.505946 -2.239356,2.505946 -1.133008,0 -2.226027,-0.8930765 -2.226027,-2.479287 0,-1.572881 1.093019,-2.4659575 2.226027,-2.4659575 1.146337,0 2.239356,0.853088 2.239356,2.4392985 z m 3.212404,-1.759494 v 1.279632 h 5.478424 v -1.279632 z m 7.131269,1.759494 c 0,2.266015 1.532893,3.8255663 3.439012,3.8255663 1.226314,0 2.106061,-0.586498 2.572593,-1.2129843 v 1.0930193 h 1.532893 V 3.1835301 H 35.403126 V 4.2498902 C 34.949923,3.6500627 34.096835,3.0635646 32.857192,3.0635646 c -1.932778,0 -3.465671,1.4929041 -3.465671,3.7589191 z m 6.011605,0.026659 c 0,1.5862105 -1.079689,2.479287 -2.226026,2.479287 -1.133008,0 -2.226027,-0.9197355 -2.226027,-2.505946 0,-1.5862105 1.093019,-2.4392985 2.226027,-2.4392985 1.146337,0 2.226026,0.8930765 2.226026,2.4659575 z"
       id="path3"
       transform="scale(0.9920381,1.0080258)"
       aria-label="dib-a" />
    <path
       d="m 46.242241,4.1390656 v 1.7108423 h 0.223366 V 4.1390656 Z m 1.588114,0.9499225 v 0.7609198 h 0.220912 V 5.0570785 c 0,-0.3853691 -0.238094,-0.5768263 -0.549826,-0.5768263 -0.181639,0 -0.343641,0.076092 -0.432006,0.216003 V 4.504798 h -0.223367 v 1.3451099 h 0.223367 V 5.1061701 c 0,-0.2896404 0.157093,-0.4320061 0.385369,-0.4320061 0.225821,0 0.375551,0.1399111 0.375551,0.4148241 z M 48.458726,4.4090694 V 4.504798 H 48.28445 v 0.1840935 h 0.174276 v 1.1610164 h 0.223366 V 4.6888915 h 0.282277 V 4.504798 h -0.282277 v -0.095729 c 0,-0.1742752 0.06627,-0.2479126 0.26755,-0.2479126 V 3.9746087 c -0.343642,0 -0.490916,0.1350019 -0.490916,0.4344607 z M 49.8112,5.8719991 c 0.382915,0 0.689737,-0.2700038 0.689737,-0.6971007 0,-0.4246424 -0.297004,-0.6921916 -0.679918,-0.6921916 -0.38046,0 -0.679919,0.2675492 -0.679919,0.6921916 0,0.4270969 0.28964,0.6971007 0.6701,0.6971007 z m 0,-0.1963664 c -0.233185,0 -0.441824,-0.1595477 -0.441824,-0.5007343 0,-0.3387321 0.213548,-0.4982798 0.449188,-0.4982798 0.230731,0 0.454097,0.1595477 0.454097,0.4982798 0,0.3411866 -0.228276,0.5007343 -0.461461,0.5007343 z M 51.018852,5.118443 c 0,-0.3117317 0.162003,-0.4074603 0.375551,-0.4074603 h 0.05891 V 4.4802522 c -0.213548,0 -0.358369,0.093274 -0.434461,0.2430034 V 4.504798 h -0.223366 v 1.3451099 h 0.223366 z m 2.633763,-0.029455 v 0.7609198 h 0.220912 V 5.0570785 c 0,-0.3853691 -0.238094,-0.5768263 -0.544917,-0.5768263 -0.206184,0 -0.397642,0.1055469 -0.476188,0.2994588 -0.08836,-0.2012756 -0.272459,-0.2994588 -0.493371,-0.2994588 -0.17673,0 -0.336277,0.076092 -0.424642,0.2184576 V 4.504798 h -0.223367 v 1.3451099 h 0.223367 V 5.1086247 c 0,-0.2896405 0.154638,-0.4344607 0.38046,-0.4344607 0.220912,0 0.368187,0.1399111 0.368187,0.4148241 v 0.7609198 h 0.220912 V 5.1086247 c 0,-0.2896405 0.154639,-0.4344607 0.38046,-0.4344607 0.220912,0 0.368187,0.1399111 0.368187,0.4148241 z m 0.503191,0.083456 c 0,0.4172786 0.277367,0.6995553 0.635736,0.6995553 0.247912,0 0.422188,-0.1276382 0.503189,-0.2724584 v 0.2503672 h 0.225821 V 4.504798 h -0.225821 v 0.245458 c -0.07855,-0.1399111 -0.250367,-0.2675492 -0.500735,-0.2675492 -0.360823,0 -0.63819,0.2700038 -0.63819,0.689737 z m 1.138925,0.00245 c 0,0.3166408 -0.211094,0.5007343 -0.456552,0.5007343 -0.245458,0 -0.454097,-0.1865481 -0.454097,-0.5031889 0,-0.3166409 0.208639,-0.4958252 0.454097,-0.4958252 0.245458,0 0.456552,0.1865481 0.456552,0.4982798 z M 55.94765,4.1660659 V 4.504798 h -0.174275 v 0.1840935 h 0.174275 v 0.7928294 c 0,0.2700038 0.135002,0.368187 0.373096,0.368187 h 0.201276 V 5.6609052 h -0.164457 c -0.137457,0 -0.186548,-0.046637 -0.186548,-0.1791843 V 4.6888915 h 0.351005 V 4.504798 H 56.171017 V 4.1660659 Z m 0.844376,0.3387321 v 1.3451099 h 0.223367 V 4.504798 Z m 0.115365,-0.2184576 c 0.081,0 0.147275,-0.066274 0.147275,-0.152184 0,-0.08591 -0.06627,-0.152184 -0.147275,-0.152184 -0.08591,0 -0.152184,0.066274 -0.152184,0.152184 0,0.08591 0.06627,0.152184 0.152184,0.152184 z M 57.395854,4.0335186 V 5.8499079 H 57.61922 V 5.2558995 l 0.527735,0.5940084 h 0.304368 L 57.815587,5.1748984 58.448869,4.504798 H 58.137137 L 57.61922,5.101261 V 4.0335186 Z"
       id="path4"
       style="font-size:2.45458px;font-family:Poppins;-inkscape-font-specification:Poppins;letter-spacing:0px;fill:#141e30;stroke-width:0.920465"
       transform="scale(0.9920381,1.0080258)"
       aria-label="Informatik" />
    <path
       d="m 45.471065,0.26654833 c -0.461668,0 -0.840149,0.38555242 -0.840149,0.85466317 v 7.6841909 c 0,0.4691061 0.378451,0.8536844 0.840149,0.8536844 h 12.91805 c 0.461652,0 0.840142,-0.3845775 0.840142,-0.8536844 V 1.1212115 c 0,-0.46910663 -0.378457,-0.85466317 -0.840142,-0.85466317 z m 0,0.48891184 h 12.91805 c 0.203419,0 0.358982,0.15899194 0.358982,0.36575923 v 7.6841904 c 0,0.2067598 -0.155525,0.3647723 -0.358982,0.3647723 h -12.91805 c -0.203419,0 -0.358967,-0.1580155 -0.358967,-0.3647723 V 1.1212115 c 0,-0.20675996 0.155554,-0.36575901 0.358967,-0.36575133 z"
       color="#000000"
       color-rendering="auto"
       fill="#555555"
       image-rendering="auto"
       shape-rendering="auto"
       solid-color="#000000"
       style="text-indent:0;text-decoration-line:none;text-decoration-style:solid;text-decoration-color:#000000;text-transform:none;white-space:normal;isolation:auto;mix-blend-mode:normal;fill:#141e30;fill-opacity:1;stroke-width:0.485018"
       id="path1" />
    <path
       id="path2"
       style="fill:#141e30;fill-opacity:1;stroke-width:0.485018"
       d="m 43.860173,9.8007536 c 0,0.5160924 0.350819,0.9326984 0.78634,0.9326984 H 59.213662 C 59.6492,10.733452 60,10.316842 60,9.8007536 Z m 6.853693,0.195867 c 0.004,-9.036e-4 0.0108,0 0.01534,0 h 2.401854 c 0.03669,0 0.0673,0.030678 0.0673,0.068399 0,0.03766 -0.03031,0.0684 -0.0673,0.0684 h -2.401854 c -0.03729,0 -0.0673,-0.03068 -0.0673,-0.0684 0,-0.03297 0.02154,-0.06208 0.05212,-0.068399 z" />
    <path
       id="path5"
       style="fill:#141e30;stroke-width:0.0629594"
       d="m 40.078136,0.26654816 h 0.345835 V 10.733452 h -0.345835 z" />
  </g>
</svg>
