<?xml version="1.0" encoding="UTF-8" standalone="no"?>
<!-- Created with Inkscape (http://www.inkscape.org/) -->

<svg
   width="200"
   height="40"
   viewBox="0 0 52.916667 10.583333"
   version="1.1"
   id="svg5"
   inkscape:version="1.2.2 (b0a8486541, 2022-12-01)"
   sodipodi:docname="logo-white.svg"
   xmlns:inkscape="http://www.inkscape.org/namespaces/inkscape"
   xmlns:sodipodi="http://sodipodi.sourceforge.net/DTD/sodipodi-0.dtd"
   xmlns="http://www.w3.org/2000/svg"
   xmlns:svg="http://www.w3.org/2000/svg">
  <sodipodi:namedview
     id="namedview7"
     pagecolor="#505050"
     bordercolor="#ffffff"
     borderopacity="1"
     inkscape:showpageshadow="0"
     inkscape:pageopacity="0"
     inkscape:pagecheckerboard="1"
     inkscape:deskcolor="#505050"
     inkscape:document-units="mm"
     showgrid="false"
     showguides="true"
     inkscape:zoom="5.6568543"
     inkscape:cx="96.431686"
     inkscape:cy="1.2374369"
     inkscape:window-width="1918"
     inkscape:window-height="1055"
     inkscape:window-x="0"
     inkscape:window-y="23"
     inkscape:window-maximized="1"
     inkscape:current-layer="g397" />
  <defs
     id="defs2" />
  <g
     inkscape:label="Layer 1"
     inkscape:groupmode="layer"
     id="layer1" />
  <g
     inkscape:groupmode="layer"
     id="layer3"
     inkscape:label="laptop">
    <g
       id="g397"
       transform="translate(0.21199439,0.06693906)">
      <text
         xml:space="preserve"
         style="font-size:13.3296px;font-family:'Open Sans';-inkscape-font-specification:'Open Sans';fill:#ffffff;fill-opacity:1;stroke-width:1.1108"
         x="-0.10304952"
         y="10.197374"
         id="text236"
         transform="scale(0.99203809,1.0080258)"><tspan
           sodipodi:role="line"
           id="tspan234"
           style="font-style:normal;font-variant:normal;font-weight:500;font-stretch:normal;font-family:Poppins;-inkscape-font-specification:'Poppins Medium';fill:#ffffff;fill-opacity:1;stroke-width:1.1108"
           x="-0.10304952"
           y="10.197374">dib-a</tspan></text>
      <g
         id="g280"
         transform="translate(0,-1.1806416)"
         style="fill:#ffffff">
        <text
           xml:space="preserve"
           style="font-style:normal;font-variant:normal;font-weight:normal;font-stretch:normal;font-size:1.72661px;font-family:Poppins;-inkscape-font-specification:Poppins;letter-spacing:0px;fill:#ffffff;fill-opacity:1;stroke-width:0.647478"
           x="42.663811"
           y="6.7669182"
           id="text398"
           transform="scale(0.9920381,1.0080258)"><tspan
             sodipodi:role="line"
             id="tspan396"
             style="font-style:normal;font-variant:normal;font-weight:normal;font-stretch:normal;font-size:1.72661px;font-family:Poppins;-inkscape-font-specification:Poppins;fill:#ffffff;fill-opacity:1;stroke-width:0.647478"
             x="42.663811"
             y="6.7669182">Informatik</tspan></text>
        <path
           d="m 41.885563,2.8607287 c -0.324749,0 -0.590982,0.2712072 -0.590982,0.6011914 V 8.867172 c 0,0.3299809 0.266212,0.6005029 0.590982,0.6005029 h 9.086879 c 0.324738,0 0.590977,-0.2705214 0.590977,-0.6005029 V 3.4619201 c 0,-0.3299813 -0.266216,-0.6011914 -0.590977,-0.6011914 z m 0,0.3439128 h 9.086879 c 0.14309,0 0.252517,0.1118389 0.252517,0.2572842 v 5.4052515 c 0,0.14544 -0.1094,0.2565899 -0.252517,0.2565899 h -9.086879 c -0.14309,0 -0.252506,-0.111152 -0.252506,-0.2565899 V 3.4619201 c 0,-0.1454401 0.10942,-0.257284 0.252506,-0.2572786 z"
           color="#000000"
           color-rendering="auto"
           fill="#555555"
           image-rendering="auto"
           shape-rendering="auto"
           solid-color="#000000"
           style="text-indent:0;text-decoration-line:none;text-decoration-style:solid;text-decoration-color:#000000;text-transform:none;white-space:normal;isolation:auto;mix-blend-mode:normal;fill:#ffffff;fill-opacity:1;stroke-width:0.341174"
           id="path5970" />
        <path
           id="path5972"
           style="fill:#ffffff;fill-opacity:1;stroke-width:0.341174"
           d="m 40.752481,9.5673269 c 0,0.3630326 0.246775,0.6560831 0.553131,0.6560831 h 10.246897 c 0.306368,0 0.55313,-0.2930533 0.55313,-0.6560831 z m 4.821059,0.1377777 c 0.0028,-6.356e-4 0.0076,0 0.01079,0 h 1.689524 c 0.02581,0 0.04734,0.02158 0.04734,0.048114 0,0.026493 -0.02132,0.048114 -0.04734,0.048114 H 45.58433 c -0.02623,0 -0.04734,-0.02158 -0.04734,-0.048114 0,-0.023191 0.01515,-0.043665 0.03666,-0.048114 z" />
      </g>
      <rect
         style="fill:#ffffff;fill-opacity:1;stroke:none;stroke-width:0.055107;stroke-dasharray:none;stroke-opacity:1"
         id="rect6948"
         width="0.34583768"
         height="8.0187521"
         x="35.888142"
         y="1.3520517" />
    </g>
  </g>
</svg>
