<?xml version="1.0" encoding="UTF-8" standalone="no"?>
<!-- Created with Inkscape (http://www.inkscape.org/) -->

<svg
   width="48"
   height="48"
   viewBox="0 0 12.7 12.7"
   version="1.1"
   id="svg5"
   inkscape:version="1.2.2 (b0a8486541, 2022-12-01)"
   sodipodi:docname="logo.svg"
   xmlns:inkscape="http://www.inkscape.org/namespaces/inkscape"
   xmlns:sodipodi="http://sodipodi.sourceforge.net/DTD/sodipodi-0.dtd"
   xmlns="http://www.w3.org/2000/svg"
   xmlns:svg="http://www.w3.org/2000/svg">
  <sodipodi:namedview
     id="namedview7"
     pagecolor="#505050"
     bordercolor="#ffffff"
     borderopacity="1"
     inkscape:showpageshadow="0"
     inkscape:pageopacity="0"
     inkscape:pagecheckerboard="1"
     inkscape:deskcolor="#505050"
     inkscape:document-units="mm"
     showgrid="false"
     showguides="true"
     inkscape:zoom="32"
     inkscape:cx="33.84375"
     inkscape:cy="28.625"
     inkscape:window-width="1920"
     inkscape:window-height="1060"
     inkscape:window-x="0"
     inkscape:window-y="20"
     inkscape:window-maximized="1"
     inkscape:current-layer="layer1" />
  <defs
     id="defs2" />
  <g
     inkscape:label="Layer 1"
     inkscape:groupmode="layer"
     id="layer1">
    <text
       xml:space="preserve"
       style="font-style:normal;font-variant:normal;font-weight:normal;font-stretch:normal;font-size:0.411263px;font-family:Poppins;-inkscape-font-specification:Poppins;letter-spacing:0px;fill:#000000;stroke-width:0.154224"
       x="10.079453"
       y="6.4090767"
       id="text398"><tspan
         sodipodi:role="line"
         id="tspan396"
         style="font-style:normal;font-variant:normal;font-weight:normal;font-stretch:normal;font-size:0.411263px;font-family:Poppins;-inkscape-font-specification:Poppins;fill:#000000;stroke-width:0.154224"
         x="10.079453"
         y="6.4090767">Informatik</tspan></text>
  </g>
  <g
     inkscape:groupmode="layer"
     id="layer3"
     inkscape:label="laptop">
    <text
       xml:space="preserve"
       style="font-size:3.175px;font-family:'Open Sans';-inkscape-font-specification:'Open Sans';fill:#000000;fill-opacity:1;stroke-width:0.264583"
       x="-0.038375784"
       y="7.2261834"
       id="text236"><tspan
         sodipodi:role="line"
         id="tspan234"
         style="font-style:normal;font-variant:normal;font-weight:500;font-stretch:normal;font-family:Poppins;-inkscape-font-specification:'Poppins Medium';fill:#000000;fill-opacity:1;stroke-width:0.264583"
         x="-0.038375784"
         y="7.2261834">dib-a</tspan></text>
    <path
       d="m 10.043036,5.4732297 c -0.077973,0 -0.1418965,0.064085 -0.1418965,0.1420587 v 1.2772354 c 0,0.077973 0.063918,0.1418961 0.1418965,0.1418961 h 2.181791 c 0.07797,0 0.141896,-0.063923 0.141896,-0.1418961 V 5.6152884 c 0,-0.077973 -0.06392,-0.1420587 -0.141896,-0.1420587 z m 0,0.081265 h 2.181791 c 0.03436,0 0.06063,0.026427 0.06063,0.060795 v 1.2772354 c 0,0.034367 -0.02627,0.060631 -0.06063,0.060631 h -2.181791 c -0.03436,0 -0.060627,-0.026265 -0.060627,-0.060631 V 5.6152884 c 0,-0.034367 0.02627,-0.060795 0.060627,-0.060794 z"
       color="#000000"
       color-rendering="auto"
       fill="#555555"
       image-rendering="auto"
       shape-rendering="auto"
       solid-color="#000000"
       style="text-indent:0;text-decoration-line:none;text-decoration-style:solid;text-decoration-color:#000000;text-transform:none;white-space:normal;isolation:auto;mix-blend-mode:normal;fill:#000000;fill-opacity:1;stroke-width:0.0812644"
       id="path5970" />
    <path
       id="path5972"
       style="fill:#000000;fill-opacity:1;stroke-width:0.0812644"
       d="m 9.7709798,7.0579671 c 0,0.085783 0.059253,0.1550293 0.1328084,0.1550293 h 2.4603148 c 0.07356,0 0.132809,-0.069247 0.132809,-0.1550293 z m 1.1575522,0.032556 c 7.41e-4,-1.502e-4 0.0018,0 0.0026,0 h 0.40566 c 0.0062,0 0.01137,0.0051 0.01137,0.011369 0,0.00626 -0.0051,0.011369 -0.01137,0.011369 h -0.40566 c -0.0063,0 -0.01137,-0.0051 -0.01137,-0.011369 0,-0.00548 0.0036,-0.010318 0.0088,-0.011369 z" />
    <rect
       style="fill:#000000;fill-opacity:1;stroke:none;stroke-width:0.013126;stroke-dasharray:none;stroke-opacity:1"
       id="rect6948"
       width="0.083036803"
       height="1.894793"
       x="9.2824802"
       y="5.387434" />
  </g>
</svg>
