<?xml version="1.0" encoding="UTF-8" standalone="no"?>
<svg
   width="1920"
   height="1520"
   viewBox="0 0 1920 1518.9867"
   version="1.1"
   id="svg94"
   sodipodi:docname="scratch.svg"
   inkscape:version="1.2.2 (b0a8486541, 2022-12-01)"
   xmlns:inkscape="http://www.inkscape.org/namespaces/inkscape"
   xmlns:sodipodi="http://sodipodi.sourceforge.net/DTD/sodipodi-0.dtd"
   xmlns:xlink="http://www.w3.org/1999/xlink"
   xmlns="http://www.w3.org/2000/svg"
   xmlns:svg="http://www.w3.org/2000/svg">
  <sodipodi:namedview
     id="namedview96"
     pagecolor="#505050"
     bordercolor="#ffffff"
     borderopacity="1"
     inkscape:showpageshadow="0"
     inkscape:pageopacity="0"
     inkscape:pagecheckerboard="1"
     inkscape:deskcolor="#505050"
     showgrid="false"
     inkscape:zoom="0.15917969"
     inkscape:cx="703.60735"
     inkscape:cy="113.07975"
     inkscape:window-width="1920"
     inkscape:window-height="1060"
     inkscape:window-x="0"
     inkscape:window-y="20"
     inkscape:window-maximized="1"
     inkscape:current-layer="svg94" />
  <g
     transform="matrix(1.886531,0,0,1.886531,205.38793,512.97657)"
     id="g76">
    <g
       stroke-miterlimit="10"
       fill="none"
       stroke="#28a5da"
       stroke-width="20"
       id="g28">
      <use
         xlink:href="#B"
         id="use2" />
      <use
         xlink:href="#C"
         id="use4" />
      <use
         xlink:href="#D"
         id="use6" />
      <use
         xlink:href="#E"
         id="use8" />
      <use
         xlink:href="#F"
         id="use10" />
      <use
         xlink:href="#G"
         id="use12" />
      <use
         xlink:href="#H"
         id="use14" />
      <use
         xlink:href="#I"
         id="use16" />
      <use
         xlink:href="#J"
         id="use18" />
      <use
         xlink:href="#K"
         id="use20" />
      <use
         xlink:href="#L"
         id="use22" />
      <use
         xlink:href="#M"
         id="use24" />
      <use
         xlink:href="#N"
         id="use26" />
    </g>
    <g
       fill="#f7f8f9"
       id="g58">
      <use
         xlink:href="#B"
         id="use30" />
      <use
         xlink:href="#C"
         id="use32" />
      <use
         xlink:href="#D"
         id="use34" />
      <use
         xlink:href="#E"
         id="use36" />
      <use
         xlink:href="#F"
         id="use38" />
      <use
         xlink:href="#G"
         id="use40" />
      <use
         xlink:href="#H"
         id="use42" />
      <use
         xlink:href="#O"
         id="use44" />
      <use
         xlink:href="#I"
         id="use46" />
      <use
         xlink:href="#J"
         id="use48" />
      <use
         xlink:href="#K"
         id="use50" />
      <use
         xlink:href="#L"
         id="use52" />
      <use
         xlink:href="#M"
         id="use54" />
      <use
         xlink:href="#N"
         id="use56" />
    </g>
    <g
       fill="#f9a737"
       id="g74">
      <use
         xlink:href="#C"
         id="use60" />
      <use
         xlink:href="#E"
         id="use62" />
      <use
         xlink:href="#G"
         id="use64" />
      <use
         xlink:href="#O"
         id="use66" />
      <use
         xlink:href="#J"
         id="use68" />
      <use
         xlink:href="#L"
         id="use70" />
      <use
         xlink:href="#N"
         id="use72" />
    </g>
  </g>
  <defs
     id="defs92">
    <path
       id="B"
       d="m 50.106,242.268 c -18.878,0 -34.712,-14.79 -36.046,-33.662 l -0.042,-0.75 c -0.308,-6.06 -0.713,-17.855 0.02,-31.15 0.494,-8.672 0.713,-23.26 0.72,-23.783 0.001,-0.04 0.001,-0.068 0.001,-0.107 0.13,-8.943 3.565,-17.134 9.127,-23.405 -2.754,-9.605 -3.648,-21.057 -1.93,-34.544 l 0.26,-2.114 c 0.976,-7.988 2.43,-19.826 8.445,-31.217 9.094,-17.2 25.76,-27.072 45.723,-27.072 a 61.02,61.02 0 0 1 3.554,0.103 49.16,49.16 0 0 1 5.831,0.681 c 6.38,-5.63 14.762,-9.055 23.914,-9.055 h 0.368 c 19.798,0.246 35.836,16.53 35.736,36.312 l -0.003,0.403 c -0.006,0.44 -1.812,51 -2.357,54.596 l -0.123,0.742 a 36.33,36.33 0 0 1 -2.273,7.694 c 8.74,10.273 13.46,23.038 13.618,37.458 0.19,18.137 -8.11,35.75 -22.78,48.314 -12.59,10.8 -28.567,16.734 -44.97,16.734 -2.662,0 -5.318,-0.146 -7.96,-0.46 a 36.9,36.9 0 0 1 -1.705,2.076 c -6.39,7.23 -15.226,11.543 -24.868,12.135 -0.642,0.045 -1.46,0.072 -2.26,0.072 z" />
    <path
       id="C"
       d="M 77.193,126.732 C 68.091,125.31 63.273,119.25 65.666,100.41 l 0.29,-2.275 c 2.02,-16.386 3.754,-19.97 11.568,-19.567 2.337,0.147 4.992,1.594 7.663,3.775 2.408,2.838 7.92,6.523 10.956,13.848 2.225,5.336 2.983,8.815 3.264,12.565 0.026,0.12 0.53,4.598 0.53,4.598 l 0.005,-0.003 c 0.6,3.134 3.062,5.72 6.388,6.32 4.296,0.77 8.43,-2.09 9.206,-6.4 0.066,-0.492 2.026,-50.074 2.038,-50.896 0.025,-4.365 -3.497,-7.918 -7.865,-7.967 -4.403,-0.008 -7.97,3.52 -7.99,7.91 l -0.16,13.8 C 95.343,69.322 87.319,63.235 78.399,62.732 54.386,61.422 51.78,83.474 50.22,96.2 l -0.28,2.233 c -3.192,25.068 5.164,40.914 24.82,43.984 21.383,3.37 35.662,8.285 35.797,21.44 0.055,5.082 -2.613,10.326 -7.336,14.375 -5.627,4.826 -13.238,6.982 -20.324,5.79 a 35.4,35.4 0 0 1 -6.264,-1.613 c -2.84,-1.545 -9.88,-5.822 -13.457,-10.783 -3.024,-4.184 -4.052,-10.764 -4.387,-14.922 l 0.07,-3.262 c 0.05,-4.36 -3.442,-7.947 -7.824,-8.03 -4.382,-0.083 -8.004,3.418 -8.06,7.818 0,0.15 -0.238,15.666 -0.758,25.025 -0.83,15.057 -0.022,27.832 0,28.375 0.304,4.377 4.058,7.7 8.432,7.4 4.392,-0.273 7.685,-4.053 7.417,-8.412 0,-0.117 -0.402,-6.254 -0.345,-14.84 5.795,3.73 13.395,7.348 22.565,8.896 11.827,1.977 23.944,-1.436 33.24,-9.402 8.3,-7.1 13.012,-16.8 12.91,-26.588 -0.32,-29.3 -33.337,-34.458 -49.244,-36.96 z" />
    <path
       id="D"
       d="m 323.923,234.866 c -6.864,-0.008 -13.765,-1.387 -21.072,-4.225 -6.472,-2.502 -11.633,-6.312 -15.672,-10.367 -2.68,1.1 -5.5,1.865 -8.435,2.293 l -38.276,5.615 a 37.21,37.21 0 0 1 -5.235,0.377 c -17.866,0 -33.25,-13.336 -35.785,-31.03 -1.387,-9.428 1.01,-18.953 6.776,-26.703 a 36.06,36.06 0 0 1 10.477,-9.482 l -0.026,-5.53 c -7.355,-6.623 -11.997,-16.22 -11.997,-26.877 a 36.01,36.01 0 0 1 6.754,-21.024 c -8.526,-5.534 -14.67,-14.574 -16.18,-25.202 -1.397,-9.36 0.995,-18.92 6.777,-26.7 5.78,-7.766 14.23,-12.803 23.82,-14.186 7.993,-1.178 24.13,-3.19 41.305,-3.19 38.1,0 62.372,9.76 74.155,29.84 6.153,10.5 13.167,31.614 -5.208,58.83 1.732,5.57 3.03,11.76 3.912,18.7 h 0.372 c 3.6,0 7.168,0.53 10.6,1.594 19.115,5.912 29.815,26.2 23.932,45.246 -5.738,18.496 -14.88,29.947 -29.65,37.14 -6.773,3.268 -13.912,4.89 -21.342,4.89 z" />
    <path
       id="E"
       d="m 342.73,174.56 c -4.2,-1.29 -8.663,1.074 -9.93,5.238 -2.9,9.422 -5.212,9.773 -6.823,10.54 -1.59,0.77 -3.743,0.543 -7.19,-0.8 -0.53,-0.314 -1.967,-2.18 -2.787,-3.92 -1.237,-2.66 -2.692,-13.71 -2.83,-20.018 -0.61,-23.295 -4.658,-36.097 -11.2,-43.158 4.416,-2.902 7.63,-6.673 7.987,-7.15 0.058,-0.062 0.106,-0.1 0.162,-0.19 9.73,-12.613 12.032,-23.51 6.862,-32.35 -12.972,-22.087 -69.952,-15.535 -87.105,-13 -4.352,0.627 -7.333,4.678 -6.678,9.004 0.61,4.354 4.65,7.332 8.985,6.676 a 237.32,237.32 0 0 1 12.409,-1.477 l 0.157,36.94 c -1.32,0.08 -2.63,0.12 -3.924,0.12 a 7.92,7.92 0 0 0 -7.932,7.923 c 0,4.363 3.557,7.936 7.932,7.936 1.32,0 2.646,-0.037 4.002,-0.096 l 0.167,46.182 -10.92,1.6 c -4.334,0.633 -7.332,4.676 -6.687,9 0.614,4.35 4.65,7.348 8.98,6.727 l 38.284,-5.62 c 4.32,-0.633 7.33,-4.654 6.69,-8.975 -0.628,-4.354 -4.675,-7.35 -8.992,-6.744 l -11.492,1.703 -0.208,-45.518 c 7.572,-1.225 14.78,-2.862 20.804,-4.697 h 0.013 c 0.043,-0.012 1.74,-0.228 2.788,-0.046 3.192,0.542 4.948,1.122 6.79,3.733 2.583,3.602 5.767,12.073 6.258,31.905 0.097,3.822 1.106,19.457 4.317,26.328 1,2.174 4.84,9.443 11.458,12.002 4.872,1.904 12.22,3.94 19.84,0.277 7.04,-3.434 11.42,-8.422 15.052,-20.117 1.297,-4.193 -1.06,-8.642 -5.24,-9.937 z m -45.104,-70.836 c -0.706,0.825 -2.73,2.962 -4.836,4.217 -1.95,1.146 -4.615,1.94 -7.187,2.73 l -4.032,1.286 c -5.593,2 -12.997,4.072 -20.96,5.532 l -0.146,-36.086 c 20.98,-0.578 39.287,1.774 42.825,7.834 0.327,0.52 0.466,1.185 0.466,1.973 -10e-4,2.897 -2.158,7.373 -6.13,12.515 z" />
    <path
       id="F"
       d="m 592.14,233.284 c -40.888,0 -64.308,-30.744 -66.3,-61.104 h 0.013 c -0.092,-1.9 -0.174,-5.766 -0.383,-15.896 l -0.003,-0.97 0.383,-23.756 c 2.06,-29.1 12.122,-49.4 29.924,-60.346 8.442,-5.23 18.08,-7.886 28.57,-7.886 3.593,0 7.023,0.314 10.21,0.82 6.622,-7.482 16.307,-12.21 27.07,-12.21 19.938,0 36.158,16.214 36.158,36.138 v 34.38 a 35.77,35.77 0 0 1 -2.007,11.823 c 4.973,5.887 8.1,13.356 8.493,21.504 0.216,2.756 0.335,4.52 0.246,6.377 l -0.43,10.605 a 9.3,9.3 0 0 1 -0.11,0.912 c -0.837,6.012 -3.02,17.44 -8.132,26.412 -3.293,5.75 -6.715,9.896 -9.933,13.53 -6.477,7.295 -13.928,11.35 -20.378,14.363 -10.755,5.057 -20.03,5.152 -26.815,5.22 l -4.274,0.045 -2.315,0.035 z" />
    <path
       id="G"
       d="m 628.04,149.606 c -4.318,0.055 -7.776,3.604 -7.776,7.93 0,0.043 0.212,2.564 0.212,2.885 0,0.321 -0.17,6.584 -0.197,7.473 -0.504,3.28 -1.655,8.504 -2.73,10.36 -1.19,2.082 -2.436,3.645 -4.644,6.162 -1.242,1.412 -4.26,2.818 -6.06,3.68 -2.037,0.94 -4,0.977 -8.614,1.027 l -4.825,0.062 c -20.632,0.664 -23.238,-16.12 -23.57,-19.793 l -0.25,-13.613 0.25,-21.256 c 0.995,-13.628 4.207,-22.793 9.052,-25.755 3.734,-2.328 9.7,-1.698 18.253,1.867 10.522,4.388 17.68,15.864 17.756,15.956 1.855,3.02 5.505,4.425 8.906,3.48 3.42,-0.967 5.78,-4.06 5.78,-7.617 v -34.38 c 0,-4.36 -3.54,-7.923 -7.943,-7.923 -4.353,0 -7.94,3.563 -7.94,7.923 V 102.2 c -3.07,-2.39 -6.58,-4.583 -10.46,-6.208 -5.007,-2.094 -20.233,-8.438 -32.674,-0.752 -9.745,5.996 -15.155,18.535 -16.564,38.314 -0.01,0.144 -0.308,22.146 -0.308,22.146 l 0.308,14.64 c 0.82,12.412 10.218,35.654 39.896,34.7 l 4.452,-0.05 c 5.365,-0.047 9.975,-0.082 15.243,-2.557 3.755,-1.762 8.047,-3.965 11.207,-7.514 2.284,-2.584 4.493,-5.22 6.545,-8.8 3.047,-5.346 4.455,-14.574 4.702,-16.354 0.033,-0.287 0.3,-9.047 0.3,-9.047 0.024,-0.123 -0.223,-3.318 -0.223,-3.318 -0.067,-4.36 -3.672,-7.87 -8.073,-7.795 z" />
    <path
       id="H"
       d="m 704.883,246 c -8.52,0 -16.704,-3.2 -23.027,-9.02 -2.547,-2.326 -4.68,-4.936 -6.397,-7.754 l -29.818,-0.5 c -19.868,-0.344 -35.806,-16.768 -35.55,-36.605 0.25,-14.47 9.045,-26.918 21.447,-32.525 l 0.1,-55.41 C 619.26,98.439 610.643,85.89 610.643,71.356 c 0,-19.93 16.216,-36.148 36.142,-36.148 h 33.986 c 6.5,-7.878 16.264,-13.004 27.257,-13.22 l 41.95,-0.715 c 19.607,0 35.826,15.945 36.16,35.555 0.214,14.314 -7.918,26.833 -19.87,32.887 l 0.46,80.2 c 10.957,5.652 18.736,16.77 19.574,29.826 1.272,19.904 -13.862,37.133 -33.747,38.404 -16.403,1.074 -26.867,2.93 -29.8,3.762 -0.572,0.236 -1.143,0.45 -1.728,0.637 -3.626,1.38 -9.1,3.467 -16.14,3.467 z" />
    <path
       id="I"
       d="m 415.525,204.538 c -7.852,-0.004 -15.327,-2.486 -21.615,-7.203 a 37.02,37.02 0 0 1 -3.831,-3.248 c -4.495,1.994 -9.473,3.11 -14.694,3.11 a 32.96,32.96 0 0 1 -1.631,-0.039 l -39.56,-1.873 c -19.88,-0.924 -35.33,-17.857 -34.43,-37.738 0.87,-19.334 16.733,-34.502 36.127,-34.502 l 0.497,0.003 6.46,-32.386 c -13.1,-4.127 -23.172,-15.538 -25.06,-29.716 -2.59,-19.74 11.3,-37.93 30.967,-40.61 l 33.96,-4.67 c 1.614,-0.22 3.268,-0.333 4.89,-0.333 9.953,0 19.564,4.167 26.39,11.445 2.482,2.63 6.052,7.798 7.964,12.367 l 29.805,72.043 0.48,1.146 0.284,-0.001 a 36.25,36.25 0 0 1 34.034,23.938 c 6.682,18.72 -3.054,39.43 -21.696,46.207 -11.91,4.254 -19.537,8.156 -22.29,9.896 -6.812,7.666 -16.708,12.164 -27.05,12.164 z" />
    <path
       id="J"
       d="m 449.86,141.012 c -2.35,0.834 -6.895,3.115 -13.945,6.213 l -10.2,-25.185 -29.827,-72.113 c -0.297,-0.77 -1.96,-3.308 -2.475,-3.854 -1.764,-1.882 -4.322,-2.806 -6.856,-2.454 l -34.003,4.675 c -4.342,0.6 -7.36,4.59 -6.797,8.92 0.582,4.354 4.566,7.376 8.917,6.818 l 22.91,-3.204 -18.324,91.55 -23.014,-1.117 c -4.37,-0.19 -8.1,3.18 -8.3,7.57 -0.19,4.367 3.2,8.062 7.582,8.266 l 39.49,1.873 c 4.37,0.19 8.085,-3.188 8.304,-7.547 0.197,-4.4 -2.36,-8.36 -8.016,-8.36 l 1.815,-12.094 36.688,-6.08 7.854,19.42 c -5.98,3.422 -9.715,5.584 -12.512,9.338 -2.614,3.537 -1.864,8.494 1.662,11.096 3.494,2.623 8.48,1.885 11.103,-1.637 3.525,-4.754 18.51,-11.854 33.3,-17.15 4.114,-1.5 6.25,-6.04 4.777,-10.158 a 7.95,7.95 0 0 0 -10.142,-4.786 z m -69.356,-12.785 9.73,-47.62 17.448,43.112 -27.177,4.508 z" />
    <path
       id="K"
       d="m 471.605,227.22 c -19.584,0 -35.803,-15.96 -36.14,-35.564 -0.243,-16.057 10.03,-29.846 24.422,-34.79 l -0.02,-10.68 c -1.07,0.258 -2.16,0.47 -3.263,0.637 -1.777,0.273 -3.594,0.408 -5.375,0.408 -18.024,0 -33.05,-12.947 -35.732,-30.772 l -6.05,-38.914 c -1.605,-10.313 1.37,-20.835 8.165,-28.85 6.695,-7.98 16.63,-12.66 27.165,-12.78 l 50.476,-0.844 c 24.525,-0.465 46.41,-2.01 47.59,-2.093 0.17,-0.024 0.34,-0.034 0.514,-0.042 a 38.94,38.94 0 0 1 2.335,-0.079 36.35,36.35 0 0 1 25.814,10.816 c 7.26,7.292 11.05,17.596 10.252,28.095 -0.68,8.995 -0.896,23.217 -0.927,26.666 0.403,14.64 -7.602,27.884 -20.634,33.96 -4.82,2.27 -10.28,3.515 -15.675,3.515 -4.29,0 -8.478,-0.783 -12.372,-2.226 l 0.044,22.7 c 13.713,5.018 23.653,18.135 23.865,33.484 0.15,9.66 -3.505,18.82 -10.28,25.754 -6.763,6.924 -15.812,10.8 -25.485,10.887 10e-4,0.002 -48.553,0.724 -48.687,0.724 z" />
    <path
       id="L"
       d="m 545.174,61.084 c -0.246,0.034 -23.476,1.7 -49.453,2.2 l -50.627,0.845 c -2.3,0.017 -4.47,1.024 -5.95,2.803 -1.483,1.73 -2.164,4.026 -1.82,6.286 l 6.066,39.04 c 0.66,4.334 4.688,7.31 9.02,6.67 3.942,-0.592 6.757,-3.98 6.757,-7.844 0,-0.364 -3.188,-20.356 -4.8,-31.233 l 33.583,-0.574 0.205,103.63 -16.67,0.215 c -4.376,0.076 -7.878,3.684 -7.813,8.043 0.086,4.398 3.67,7.896 8.033,7.842 l 48.324,-0.723 c 4.374,-0.04 7.882,-3.676 7.824,-8.04 -0.068,-4.395 -3.673,-7.867 -8.046,-7.834 l -15.78,0.242 -0.205,-103.682 c 13.66,-0.38 25.354,-1.03 33.367,-1.47 -0.403,6.593 -0.6,11.565 -0.6,15.18 0,8.484 0.907,10.094 1.598,11.3 2.018,3.667 6.3,4.64 10.085,2.85 2.946,-1.368 4.526,-4.674 4.34,-7.92 -0.008,-0.133 0.15,-17.905 1.013,-29.267 0.17,-2.318 -0.64,-4.573 -2.274,-6.216 -1.608,-1.64 -3.888,-2.477 -6.176,-2.335 z" />
    <path
       id="M"
       d="m 175.126,243.215 c -40.706,-0.01 -64.12,-30.422 -66.36,-60.637 -0.07,-0.922 -0.096,-1.7 -0.102,-2.32 l -0.288,-14.668 0.288,-21.967 c 0.002,-0.68 0.034,-1.436 0.087,-2.215 2.092,-29.076 12.16,-49.368 29.936,-60.303 8.477,-5.224 18.098,-7.872 28.566,-7.872 3.596,0 7.03,0.325 10.218,0.83 6.627,-7.494 16.312,-12.227 27.083,-12.227 19.936,0 36.143,16.22 36.143,36.157 v 34.35 c 0,3.702 -0.565,7.31 -1.64,10.73 4.83,5.916 7.843,13.377 8.133,21.498 l 0.222,4.172 c 0.032,0.506 0.042,1.016 0.042,1.53 0,0.1 -0.105,9.744 -0.595,13.385 h 0.002 c -1.057,7.39 -3.323,17.973 -8.132,26.37 -3.318,5.828 -6.81,9.975 -9.825,13.412 -6.608,7.393 -14.04,11.44 -20.46,14.44 -10.737,5.068 -20.033,5.154 -26.82,5.22 l -4.142,0.082 -2.348,0.035 z" />
    <path
       id="N"
       d="m 210.958,157.924 c -4.348,0.08 -7.803,3.635 -7.803,7.945 0,0.043 0.217,4.127 0.217,4.46 a 2634.86,2634.86 0 0 1 -0.202,7.457 c -0.5,3.277 -1.64,8.502 -2.716,10.36 -1.185,2.086 -2.512,3.73 -4.668,6.154 -1.23,1.42 -4.24,2.842 -6.05,3.666 -2.032,0.96 -3.98,1.006 -8.592,1.05 l -4.844,0.078 c -20.633,0.633 -23.23,-16.102 -23.563,-19.803 l -0.287,-13.605 c 0.022,-0.264 0.287,-20.69 0.287,-21.273 1,-13.625 4.198,-22.79 9.05,-25.75 3.718,-2.332 9.693,-1.696 18.24,1.864 10.522,4.405 17.7,15.847 17.746,15.97 1.868,3.005 5.518,4.447 8.926,3.466 3.42,-0.957 5.784,-4.06 5.784,-7.623 V 97.99 c 0,-4.386 -3.56,-7.942 -7.928,-7.942 a 7.93,7.93 0 0 0 -7.939,7.942 v 14.1 c -3.083,-2.39 -6.58,-4.598 -10.48,-6.205 -5,-2.088 -20.226,-8.416 -32.66,-0.754 -9.743,5.99 -15.163,18.53 -16.584,38.32 -0.01,0.156 -0.01,0.305 -0.01,0.432 l -0.29,21.984 0.29,14.016 a 3.28,3.28 0 0 0 0.011,0.342 c 0.83,12.438 10.218,35.64 39.902,34.75 l 4.455,-0.1 c 5.357,-0.05 9.976,-0.074 15.244,-2.557 3.773,-1.762 8.03,-3.95 11.215,-7.518 2.282,-2.588 4.502,-5.22 6.534,-8.79 3.056,-5.348 4.44,-14.576 4.694,-16.355 0.044,-0.3 0.307,-9.29 0.307,-9.395 l -0.237,-4.53 c -0.07,-4.384 -3.683,-7.9 -8.046,-7.818 z" />
    <path
       id="O"
       d="m 758.15,201.547 c -0.28,-4.363 -4.056,-7.693 -8.426,-7.4 -2.95,0.2 -6.83,0.492 -11.147,0.955 l -0.67,-129.54 12.217,-0.172 c 4.364,-0.074 7.868,-3.708 7.804,-8.083 -0.064,-4.375 -3.68,-7.875 -8.056,-7.813 l -41.295,0.7 c -4.394,0.096 -7.868,3.69 -7.793,8.074 0.055,4.376 3.68,7.885 8.043,7.8 l 13.19,-0.24 0.33,54.978 -46.666,7.8 0.085,-49.292 h 12.683 c 4.392,0 7.955,-3.56 7.955,-7.954 0,-4.374 -3.563,-7.934 -7.955,-7.934 h -41.666 c -4.38,0 -7.924,3.56 -7.924,7.934 0,4.394 3.543,7.954 7.924,7.954 h 13.113 l -0.188,105.577 -13.346,-0.232 c -4.37,-0.074 -7.98,3.424 -8.06,7.842 -0.052,4.344 3.426,7.945 7.806,8.02 l 42.86,0.72 a 7.95,7.95 0 0 0 8.056,-7.814 c 0.066,-4.396 -3.426,-8 -7.793,-8.05 l -13.667,-0.22 0.085,-40.48 46.797,-7.81 0.276,60.502 c -10.8,2.045 -18.055,2.895 -22.452,7.83 -2.86,3.232 -2.524,8.098 0.676,11.008 3.188,2.938 6.74,1.182 11.224,-0.48 l -0.06,0.04 c 4.58,-2.078 19.684,-4.553 38.628,-5.78 4.373,-0.288 7.69,-4.056 7.4,-8.437 z" />
  </defs>
</svg>
