<?xml version="1.0" encoding="UTF-8" standalone="no"?>
<svg
   enable-background="new 0 0 1000 1000"
   viewBox="0 0 1920 1520"
   version="1.1"
   id="svg154"
   sodipodi:docname="script.svg"
   width="1920"
   height="1520"
   inkscape:version="1.2.2 (b0a8486541, 2022-12-01)"
   xmlns:inkscape="http://www.inkscape.org/namespaces/inkscape"
   xmlns:sodipodi="http://sodipodi.sourceforge.net/DTD/sodipodi-0.dtd"
   xmlns="http://www.w3.org/2000/svg"
   xmlns:svg="http://www.w3.org/2000/svg">
  <defs
     id="defs158" />
  <sodipodi:namedview
     id="namedview156"
     pagecolor="#505050"
     bordercolor="#ffffff"
     borderopacity="1"
     inkscape:showpageshadow="0"
     inkscape:pageopacity="0"
     inkscape:pagecheckerboard="1"
     inkscape:deskcolor="#505050"
     showgrid="false"
     inkscape:zoom="0.62083975"
     inkscape:cx="698.24782"
     inkscape:cy="758.64988"
     inkscape:window-width="960"
     inkscape:window-height="1060"
     inkscape:window-x="960"
     inkscape:window-y="20"
     inkscape:window-maximized="0"
     inkscape:current-layer="svg154" />
  <g
     id="g538"
     transform="matrix(4.5684804,0,0,4.5684804,-37.121832,-1427.3022)">
    <path
       fill="#2d425e"
       d="m 312.79816,560.92362 h -189.073 a 8,8 0 0 1 -8,-8 v -148.285 a 8,8 0 0 1 8,-8 h 189.072 a 8,8 0 0 1 8,8 v 148.286 a 7.998,7.998 0 0 1 -7.999,7.999 z"
       id="path58" />
    <path
       fill="none"
       stroke="#1f3969"
       stroke-linecap="round"
       stroke-linejoin="round"
       stroke-miterlimit="10"
       stroke-width="4"
       d="m 320.79816,416.09262 h -205.073 v -11.454 a 8,8 0 0 1 8,-8 h 189.072 a 8,8 0 0 1 8,8 v 11.454 z"
       id="path60" />
    <path
       fill="#d0ddf0"
       d="m 320.79816,419.90262 h -205.073 v -15.264 a 8,8 0 0 1 8,-8 h 189.072 a 8,8 0 0 1 8,8 v 15.264 z"
       id="path62" />
    <path
       fill="none"
       stroke="#1f3969"
       stroke-linecap="round"
       stroke-linejoin="round"
       stroke-miterlimit="10"
       stroke-width="4"
       d="m 320.79816,419.90262 h -205.073 v -15.264 a 8,8 0 0 1 8,-8 h 189.072 a 8,8 0 0 1 8,8 v 15.264 z"
       id="path64" />
    <path
       fill="none"
       stroke="#1f3969"
       stroke-linecap="round"
       stroke-linejoin="round"
       stroke-miterlimit="10"
       stroke-width="4"
       d="m 320.79816,419.90262 h -205.073 v -15.264 a 8,8 0 0 1 8,-8 h 189.072 a 8,8 0 0 1 8,8 v 15.264 z"
       id="path66" />
    <path
       fill="none"
       stroke="#1f3969"
       stroke-linecap="round"
       stroke-linejoin="round"
       stroke-miterlimit="10"
       stroke-width="4"
       d="m 312.79816,560.92362 h -189.073 a 8,8 0 0 1 -8,-8 v -148.285 a 8,8 0 0 1 8,-8 h 189.072 a 8,8 0 0 1 8,8 v 148.286 a 7.998,7.998 0 0 1 -7.999,7.999 z"
       id="path68" />
    <circle
       cx="135.79716"
       cy="408.27066"
       r="4"
       fill="#1f3969"
       id="circle80" />
    <circle
       cx="149.68315"
       cy="408.27066"
       r="4"
       fill="#1f3969"
       id="circle82" />
    <circle
       cx="163.56917"
       cy="408.27066"
       r="4"
       fill="#1f3969"
       id="circle84" />
    <path
       fill="none"
       stroke="#ffffff"
       stroke-linecap="round"
       stroke-linejoin="round"
       stroke-miterlimit="10"
       stroke-width="4"
       d="m 233.53816,438.36362 h 12.928"
       id="path86" />
    <path
       fill="none"
       stroke="#7bffa0"
       stroke-linecap="round"
       stroke-linejoin="round"
       stroke-miterlimit="10"
       stroke-width="4"
       d="m 167.56916,438.36362 h 56.376"
       id="path88" />
    <path
       fill="none"
       stroke="#9169ff"
       stroke-linecap="round"
       stroke-linejoin="round"
       stroke-miterlimit="10"
       stroke-width="4"
       d="m 139.79716,438.36362 h 19.772 m 6,98.559 h 43.058"
       id="path90" />
    <path
       fill="none"
       stroke="#7bffa0"
       stroke-linecap="round"
       stroke-linejoin="round"
       stroke-miterlimit="10"
       stroke-width="4"
       d="m 139.79716,536.92262 h 13.885"
       id="path92" />
    <path
       fill="none"
       stroke="#ffffff"
       stroke-linecap="round"
       stroke-linejoin="round"
       stroke-miterlimit="10"
       stroke-width="4"
       d="m 223.94616,450.68362 h 8.015"
       id="path94" />
    <path
       fill="none"
       stroke="#9169ff"
       stroke-linecap="round"
       stroke-linejoin="round"
       stroke-miterlimit="10"
       stroke-width="4"
       d="m 187.07616,450.68362 h 27.227"
       id="path96" />
    <path
       fill="none"
       stroke="#ffc47d"
       stroke-linecap="round"
       stroke-linejoin="round"
       stroke-miterlimit="10"
       stroke-width="4"
       d="m 149.68316,450.68362 h 27.744"
       id="path98" />
    <path
       fill="none"
       stroke="#ffffff"
       stroke-linecap="round"
       stroke-linejoin="round"
       stroke-miterlimit="10"
       stroke-width="4"
       d="m 192.62716,463.00362 h 23.838"
       id="path100" />
    <path
       fill="none"
       stroke="#ff5757"
       stroke-linecap="round"
       stroke-linejoin="round"
       stroke-miterlimit="10"
       stroke-width="4"
       d="m 162.56616,463.00362 h 22.482"
       id="path102" />
    <path
       fill="none"
       stroke="#ffffff"
       stroke-linecap="round"
       stroke-linejoin="round"
       stroke-miterlimit="10"
       stroke-width="4"
       d="m 195.80616,475.32362 h 4.938"
       id="path104" />
    <path
       fill="none"
       stroke="#9169ff"
       stroke-linecap="round"
       stroke-linejoin="round"
       stroke-miterlimit="10"
       stroke-width="4"
       d="m 175.98616,475.32362 h 11.09"
       id="path106" />
    <path
       fill="none"
       stroke="#7bffa0"
       stroke-linecap="round"
       stroke-linejoin="round"
       stroke-miterlimit="10"
       stroke-width="4"
       d="m 149.68316,475.32362 h 17.886"
       id="path108" />
    <path
       fill="none"
       stroke="#ffc47d"
       stroke-linecap="round"
       stroke-linejoin="round"
       stroke-miterlimit="10"
       stroke-width="4"
       d="m 188.08516,487.64362 h 31.894"
       id="path110" />
    <path
       fill="none"
       stroke="#ff5757"
       stroke-linecap="round"
       stroke-linejoin="round"
       stroke-miterlimit="10"
       stroke-width="4"
       d="m 149.68316,487.64362 h 28.627"
       id="path112" />
    <path
       fill="none"
       stroke="#9169ff"
       stroke-linecap="round"
       stroke-linejoin="round"
       stroke-miterlimit="10"
       stroke-width="4"
       d="m 224.97916,499.96362 h 17.343"
       id="path114" />
    <path
       fill="none"
       stroke="#ff5757"
       stroke-linecap="round"
       stroke-linejoin="round"
       stroke-miterlimit="10"
       stroke-width="4"
       d="m 188.08516,499.96362 h 27.749"
       id="path116" />
    <path
       fill="none"
       stroke="#7bffa0"
       stroke-linecap="round"
       stroke-linejoin="round"
       stroke-miterlimit="10"
       stroke-width="4"
       d="m 162.56616,499.96362 h 15.744"
       id="path118" />
    <path
       fill="none"
       stroke="#ffffff"
       stroke-linecap="round"
       stroke-linejoin="round"
       stroke-miterlimit="10"
       stroke-width="4"
       d="m 200.69016,512.28362 h 15.144"
       id="path120" />
    <path
       fill="none"
       stroke="#9169ff"
       stroke-linecap="round"
       stroke-linejoin="round"
       stroke-miterlimit="10"
       stroke-width="4"
       d="m 162.56616,512.28362 h 27.744"
       id="path122" />
    <path
       fill="none"
       stroke="#ffffff"
       stroke-linecap="round"
       stroke-linejoin="round"
       stroke-miterlimit="10"
       stroke-width="4"
       d="m 240.00216,524.60262 h 17.292"
       id="path124" />
    <path
       fill="none"
       stroke="#ffc47d"
       stroke-linecap="round"
       stroke-linejoin="round"
       stroke-miterlimit="10"
       stroke-width="4"
       d="m 187.07616,524.60262 h 43.569"
       id="path126" />
    <path
       fill="none"
       stroke="#ffffff"
       stroke-linecap="round"
       stroke-linejoin="round"
       stroke-miterlimit="10"
       stroke-width="4"
       d="m 149.68316,524.60262 h 27.744"
       id="path128" />
  </g>
</svg>
