<?xml version="1.0" encoding="UTF-8" standalone="no"?>
<svg
   width="1920"
   height="1520"
   version="1.1"
   viewBox="0 0 1800 1425"
   id="svg21"
   sodipodi:docname="tux.svg"
   inkscape:version="1.2.2 (b0a8486541, 2022-12-01)"
   xmlns:inkscape="http://www.inkscape.org/namespaces/inkscape"
   xmlns:sodipodi="http://sodipodi.sourceforge.net/DTD/sodipodi-0.dtd"
   xmlns="http://www.w3.org/2000/svg"
   xmlns:svg="http://www.w3.org/2000/svg">
  <sodipodi:namedview
     id="namedview23"
     pagecolor="#505050"
     bordercolor="#ffffff"
     borderopacity="1"
     inkscape:showpageshadow="0"
     inkscape:pageopacity="0"
     inkscape:pagecheckerboard="1"
     inkscape:deskcolor="#505050"
     inkscape:document-units="mm"
     showgrid="false"
     inkscape:zoom="0.55307693"
     inkscape:cx="668.98469"
     inkscape:cy="629.20722"
     inkscape:window-width="1920"
     inkscape:window-height="1060"
     inkscape:window-x="0"
     inkscape:window-y="20"
     inkscape:window-maximized="1"
     inkscape:current-layer="svg21" />
  <defs
     id="defs7">
    <linearGradient
       id="a"
       x1="417.19"
       x2="404.47"
       y1="537.59003"
       y2="910.94"
       gradientUnits="userSpaceOnUse"
       gradientTransform="matrix(0.89139138,0,0,0.89139138,565.96481,48.487748)">
      <stop
         stop-color="#fff"
         offset="0"
         id="stop2" />
      <stop
         stop-color="#fff"
         offset="1"
         id="stop4" />
    </linearGradient>
  </defs>
  <g
     inkscape:groupmode="layer"
     id="layer1"
     inkscape:label="bg-eyes"
     style="fill:#ffffff" />
  <g
     id="g328"
     transform="translate(-6.6987826e-6,206.24999)">
    <rect
       style="fill:#ffffff;stroke-width:0.9375"
       id="rect430"
       width="168.39952"
       height="114.65337"
       x="810.68921"
       y="227.05121" />
    <path
       d="m 1029.7914,880.86902 c -9.0351,-1.36864 -17.974,-4.93849 -25.3155,-10.11105 -3.3396,-2.35256 -8.82782,-7.53431 -11.53908,-10.8937 -4.47077,-5.54133 -8.79669,-13.29421 -10.56833,-18.93939 l -1.02243,-3.25875 -3.75998,0.18868 c -3.99985,0.20069 -15.14474,-0.19612 -20.83538,-0.74188 -4.92449,-0.47223 -12.00258,-1.37622 -23.04781,-2.94373 -16.14488,-2.29114 -18.12823,-2.4704 -27.24716,-2.46336 -14.07686,0.0109 -24.25833,1.26034 -50.39214,6.18439 -12.16304,2.29167 -16.8054,2.96681 -21.94962,3.19162 l -4.3015,0.18802 -1.10764,2.21066 c -6.9172,13.80497 -20.72129,23.98021 -37.45181,27.60728 -8.12619,1.76148 -19.33606,2.3235 -28.03961,1.4059 -17.1575,-1.8089 -32.80944,-6.58542 -50.9029,-15.53428 -11.57918,-5.7271 -18.51064,-8.26551 -28.97022,-10.60845 -9.43271,-2.1134 -16.68953,-3.21516 -35.18768,-5.34264 -22.87132,-2.63041 -31.71927,-4.46159 -39.96464,-8.27086 -5.72835,-2.64654 -11.17983,-7.30718 -13.83529,-11.82788 -3.02422,-5.14912 -4.11858,-9.78034 -4.11457,-17.41244 0.004,-8.10051 1.51189,-15.79188 5.28613,-26.97082 2.19674,-6.50627 2.46211,-8.29422 2.2365,-15.06808 -0.13957,-4.19043 -0.54401,-7.93143 -1.75051,-16.19302 -2.38982,-16.36327 -2.66705,-21.96656 -1.41366,-28.57444 2.08033,-10.96679 9.16618,-20.42356 19.66142,-26.24078 3.51565,-1.94858 6.63819,-3.27613 12.87526,-5.47377 14.27206,-5.02878 18.50795,-7.17427 22.78931,-11.54352 2.61614,-2.67016 3.63705,-3.94806 9.90603,-12.40014 6.28413,-8.47196 8.12878,-10.75464 11.61305,-14.37191 l 2.74584,-2.85049 -0.50649,-4.15593 c -0.69774,-5.72505 -0.95022,-18.81906 -0.4859,-25.19429 1.69766,-23.30899 8.32702,-47.82493 20.13653,-74.46772 15.44425,-34.84271 39.65622,-72.77409 70.32276,-110.16706 7.52334,-9.1742 13.6169,-18.5561 19.51702,-30.0497 10.65212,-20.74981 15.76514,-40.19016 18.05691,-68.66299 0.44203,-5.48999 0.26047,-11.32601 -0.96386,-30.98387 -1.35108,-21.69201 -1.55628,-26.97172 -1.56475,-40.25434 -0.008,-12.15412 0.25044,-18.39832 1.11674,-27.00738 4.81137,-47.81245 24.85466,-78.16878 61.01841,-92.41054 16.3392,-6.43638 36.99007,-9.67338 58.38703,-9.15192 19.31199,0.47061 34.077,3.7598 48.42216,10.78762 8.66771,4.24614 15.68581,9.26958 22.60212,16.17786 20.65354,20.63036 32.26744,52.77305 35.61824,98.57898 0.9161,12.52404 1.1046,20.72395 1.1021,47.95507 0,32.69534 0.1154,34.4701 3.1174,46.72495 4.1583,16.97477 12.2512,33.05012 26.7221,53.0779 5.4149,7.4942 15.2312,20.07324 22.4791,28.80442 33.4691,40.32209 55.7271,77.66069 67.6896,113.55435 12.0534,36.16731 13.3798,70.96813 3.8898,102.09106 -0.7051,2.31209 -1.3401,4.41408 -1.4111,4.67098 -0.092,0.33157 0.4978,0.71922 2.0317,1.3361 3.1608,1.2713 8.443,4.89419 11.3778,7.80333 5.8535,5.80332 9.4558,13.25588 12.5971,26.06339 0.6911,2.81769 2.0275,8.27586 2.9697,12.12917 2.6948,11.02116 4.9996,17.03181 8.0181,20.91026 0.7448,0.9569 2.7371,3.33469 4.4274,5.28381 22.8348,26.33348 24.9117,45.58664 6.5121,60.3882 -5.7824,4.65172 -10.9382,7.56684 -31.0721,17.56932 -8.3922,4.16904 -16.94,8.52518 -18.9955,9.68051 -14.8052,8.32043 -23.7654,15.42999 -33.339,26.45204 -18.6809,21.50838 -39.6428,34.60292 -62.3902,38.9752 -3.6638,0.70422 -5.2077,0.82592 -11.5471,0.9102 -5.2072,0.0693 -8.1644,-0.0311 -10.2528,-0.34737 z m 14.1455,-9.49867 c 12.5365,-1.17842 25.361,-6.06565 37.9902,-14.47709 9.3632,-6.23617 16.5326,-12.81107 27.0172,-24.77711 8.4925,-9.69299 18.3314,-17.42046 32.46,-25.49558 4.627,-2.64449 8.6592,-4.68435 30.6728,-15.51645 14.8987,-7.33133 21.6153,-12.01773 25.2754,-17.63528 4.2934,-6.59006 3.0518,-15.01549 -3.8557,-26.16412 -2.9907,-4.82715 -6.8499,-9.82938 -13.9164,-18.03909 -4.6363,-5.38597 -7.5879,-12.24772 -10.4632,-24.32607 -4.5892,-19.27634 -5.5064,-22.38997 -8.1817,-27.77754 -2.9104,-5.86116 -7.1048,-10.01389 -12.9912,-12.86189 -5.348,-2.58762 -7,-2.87848 -17.2368,-3.035 l -8.8292,-0.13506 -3.1596,3.13066 c -10.16,10.06737 -24.7165,18.15853 -37.7245,20.96998 -4.5782,0.98944 -12.0935,0.99212 -15.5129,0.005 -5.4873,-1.58365 -8.9879,-3.59757 -13.0767,-7.52246 -7.3992,-7.10349 -12.5045,-18.41258 -14.1366,-31.31279 -0.2819,-2.22857 -0.5508,-4.10308 -0.5975,-4.16556 -0.2205,-0.29496 -4.4241,2.38554 -6.728,4.29026 -5.4872,4.53647 -9.668,11.19499 -12.6559,20.15882 -4.0279,12.08192 -6.1656,27.32204 -7.6592,54.60396 -1.0808,19.73986 -1.7099,22.80892 -11.52305,56.20669 -6.57035,22.36144 -8.92193,34.53606 -8.96116,46.39781 -0.0311,9.37744 1.17192,14.65358 4.8531,21.28375 5.64151,10.16097 13.27461,17.71551 22.05921,21.83196 8.1569,3.82246 17.1272,5.27766 26.8817,4.36077 z m -262.41672,-8.72494 c 9.89177,-1.07421 18.99199,-4.16226 25.90651,-8.79143 3.00033,-2.00858 7.87009,-6.87762 9.87662,-9.87573 3.13502,-4.68328 5.29361,-10.00676 6.6291,-16.34812 0.84857,-4.02962 1.16986,-11.38663 0.64052,-14.66784 -1.39084,-8.62163 -7.05215,-20.35314 -15.98799,-33.13124 -3.77255,-5.3947 -8.41251,-11.43209 -18.42863,-23.97753 -14.74183,-18.46428 -19.56426,-25.17646 -23.83135,-33.16333 -0.91483,-1.71272 -8.03054,-14.7445 -15.81239,-28.95952 -15.56993,-28.43984 -15.93719,-29.0246 -22.48713,-35.77243 -5.40103,-5.56371 -9.96041,-9.02623 -14.8069,-11.24223 -6.69658,-3.06308 -14.52879,-4.01179 -20.46011,-2.47806 -7.09271,1.83421 -13.27816,7.13246 -21.9728,18.81994 -9.381,12.61052 -11.26094,14.93616 -14.76411,18.2557 -5.27606,5.00079 -10.21802,7.60428 -22.67254,11.94375 -13.65612,4.75825 -17.66114,6.90017 -22.2001,11.87333 -3.35859,3.67993 -5.65009,8.03616 -6.55217,12.45631 -1.3871,6.79641 -1.04587,11.69238 2.33089,33.44054 0.39732,2.55892 0.69105,6.39663 0.79843,10.43196 0.21329,8.01512 -0.0991,9.97823 -2.99712,18.83955 -3.53758,10.81615 -4.88055,18.06048 -4.58951,24.75573 0.27039,6.22209 1.59452,9.95149 4.73971,13.34858 6.10861,6.59799 15.80169,9.51739 40.47006,12.18889 26.77472,2.89969 37.34662,4.72259 49.97942,8.61779 6.88564,2.12312 10.25189,3.51235 20.24082,8.3535 5.05241,2.44865 11.18964,5.24218 13.63829,6.20782 11.67723,4.60511 23.09774,7.55267 33.77839,8.71817 4.70672,0.51358 14.48511,0.59613 18.53381,0.15645 z m 121.67493,-57.91815 c 28.31148,-1.86087 56.18083,-11.79044 82.72914,-29.47386 2.17499,-1.44878 4.08052,-2.79799 4.23455,-2.99828 0.36829,-0.47887 5.32954,-17.97758 6.90151,-24.34212 2.56525,-10.38649 2.87973,-12.86278 3.91339,-30.82788 2.1175,-36.80376 6.2185,-55.1281 15.4398,-68.98656 2.4349,-3.65952 8.2335,-9.56106 11.6059,-11.81183 2.3005,-1.53551 9.0013,-4.98225 9.6983,-4.98849 0.1742,-0.003 0.5685,-1.63561 0.8764,-3.63117 0.9701,-6.28832 2.7145,-10.75999 5.6592,-14.50829 7.0219,-8.9362 20.7703,-10.42928 39.3906,-4.27796 10.1779,3.36259 24.0578,10.23852 31.8477,15.77673 3.2951,2.34267 8.8081,7.85067 10.1529,10.14315 2.5521,4.35168 3.3808,9.06634 2.4137,13.73188 -0.2789,1.34564 -0.5071,2.50677 -0.5071,2.58031 0,0.0735 1.3663,0.0935 3.0361,0.0446 l 3.0361,-0.0891 0.5126,-2.02408 c 3.2448,-12.81197 -2.8764,-23.93386 -19.1934,-34.87302 -5.9791,-4.00858 -18.0534,-10.59151 -23.7422,-12.94567 -1.1589,-0.47943 -2.2234,-0.96984 -2.3656,-1.08982 -0.1422,-0.12001 0.031,-1.5561 0.3856,-3.19136 7.9523,-36.70482 -6.4736,-82.17291 -38.1552,-120.25761 -3.787,-4.55251 -13.9083,-14.99053 -14.8158,-15.27755 -0.3273,-0.10389 -0.9474,0.0454 -1.388,0.33404 -1.6588,1.08687 -0.3767,3.32105 5.1806,9.02712 7.1133,7.30424 10.965,12.11668 16.5754,20.70791 19.829,30.36703 27.5012,63.55086 21.2267,91.81331 -0.7539,3.39629 -2.9629,10.70026 -3.4705,11.47577 -0.1859,0.28394 -1.1781,0.18351 -4.1284,-0.41792 -2.1834,-0.44511 -5.6511,-0.88138 -7.9208,-0.99657 l -4.0372,-0.20483 -0.419,-2.17981 c -5.5223,-28.73044 -16.2349,-58.23906 -32.2621,-88.86727 -11.3403,-21.6724 -18.3386,-36.98739 -29.61383,-64.80682 -10.25634,-25.30661 -21.41656,-58.15259 -26.31833,-77.46013 -0.18478,-0.72789 -0.43567,-1.32042 -0.55753,-1.31677 -0.12184,0.004 -0.60205,0.54479 -1.06708,1.20249 -1.42391,2.01374 -5.15786,5.84708 -7.64261,7.84594 -6.63846,5.34041 -13.51973,9.04049 -22.80714,12.26376 -4.17982,1.45065 -7.68602,3.22604 -13.01966,6.59273 -11.95713,7.54732 -17.79128,10.68155 -23.60583,12.68183 -7.62443,2.62301 -15.94432,3.70765 -23.42042,3.05301 -7.21563,-0.6319 -12.12916,-1.99056 -17.80376,-4.92262 -4.46908,-2.30941 -7.7568,-4.73382 -14.41558,-10.62984 -7.25869,-6.42738 -9.06634,-7.85289 -13.2336,-10.43373 -1.87628,-1.16202 -4.50847,-2.87644 -5.84931,-3.80972 -2.7322,-1.90179 -2.92233,-1.86096 -2.93223,0.62879 -0.008,2.06393 -1.10006,11.19945 -1.89813,15.88103 -2.30175,13.5028 -5.44194,25.61859 -10.85536,41.88292 -7.16492,21.52532 -15.38542,41.38017 -31.78078,76.75949 -12.75492,27.52349 -15.26418,33.34606 -19.04725,44.19251 -7.90129,22.65561 -12.93587,47.66003 -13.84509,68.76728 -0.11627,2.69744 -0.30338,4.90453 -0.41579,4.90453 -0.11241,0 -1.20177,-1.50637 -2.42066,-3.34753 -15.66353,-23.65753 -17.63261,-53.42822 -5.8469,-88.37255 2.97296,-8.81452 5.6762,-15.11621 11.01492,-25.67652 2.64066,-5.22365 6.57312,-13.00095 8.73867,-17.2823 4.36844,-8.63723 6.56491,-13.83439 6.56491,-15.53517 0,-2.26476 -0.86128,-1.39351 -4.42941,4.48049 -16.02276,26.37805 -25.98584,46.76952 -32.4823,66.48353 -8.95046,27.16248 -9.88464,50.60162 -2.78043,69.79773 3.76684,10.1788 9.09754,18.38941 17.27071,26.60269 5.27632,5.30235 9.25888,8.53061 15.6564,12.69252 2.5451,1.65549 7.84709,5.13691 11.78241,7.73656 32.7827,21.65725 53.94611,45.53227 57.91637,65.33721 0.5471,2.72899 0.47346,8.02208 -0.14513,10.43195 -1.38834,5.40816 -4.70191,9.4122 -9.8882,11.9491 -3.76399,1.84099 -7.04449,2.67685 -11.40625,2.90638 -1.92674,0.1014 -3.50192,0.26862 -3.5004,0.37163 0.002,0.103 1.27879,1.79873 2.83828,3.76835 4.98965,6.30169 11.91612,15.65551 15.08769,20.37632 l 3.07904,4.58246 3.58678,2.25781 c 7.33054,4.61455 14.71599,8.39815 21.80344,11.17002 13.32184,5.20965 24.65767,7.67649 40.17055,8.74117 3.4323,0.23554 10.53981,0.17809 15.10819,-0.12217 z m -14.7971,-408.36422 c 9.53165,-1.28646 16.25452,-4.05904 28.18134,-11.62285 10.05489,-6.37621 14.0715,-8.53347 18.68356,-10.03261 21.00653,-6.8302 35.70379,-22.15554 34.07254,-35.52908 -0.66172,-5.42572 -4.31255,-10.45513 -10.41323,-14.34516 -3.11354,-1.98522 -10.51485,-5.08165 -20.70078,-8.66005 -10.53536,-3.70114 -13.35304,-4.95827 -19.70688,-8.79268 -13.66236,-8.24412 -23.92316,-11.85194 -34.94344,-12.28694 -7.13309,-0.28123 -13.06155,0.77659 -19.53127,3.48498 -6.33895,2.65359 -12.13006,6.6841 -19.58922,13.63294 -3.44674,3.21115 -7.35469,6.36989 -13.39048,10.82328 -12.02309,8.87077 -13.55004,10.10392 -15.07343,12.17373 -6.20319,8.42641 -2.32279,20.11781 9.94436,29.96234 2.85165,2.28847 4.7045,3.55201 10.15206,6.92326 3.5899,2.22161 7.5409,5.35129 12.91983,10.23406 9.11269,8.27193 13.96275,11.2137 21.63139,13.11861 5.4579,1.35589 12.00259,1.69328 17.76365,0.91581 z M 871.8939,374.69777 c -7.08211,-0.8648 -13.30134,-2.71901 -19.77374,-5.89566 -6.87387,-3.37356 -12.83514,-7.46416 -19.67568,-13.50101 -6.90703,-6.09552 -9.61276,-8.92016 -10.17702,-10.62182 -0.99514,-3.00328 -0.36699,-5.42688 1.29814,-5.009 1.4428,0.36214 2.39909,1.31587 3.6465,3.63661 1.34351,2.49964 3.75526,5.03181 9.63951,10.12086 10.72165,9.27225 19.64626,14.12231 30.68258,16.67347 2.5369,0.58648 3.88968,0.68513 9.49778,0.69261 5.94228,0.008 6.89473,-0.0677 10.43195,-0.82788 7.30754,-1.57064 15.80348,-4.70789 24.44463,-9.02623 9.79728,-4.89642 13.91016,-7.46398 24.28863,-15.16079 6.6069,-4.8998 7.13095,-5.36698 9.52451,-8.49095 1.97363,-2.5754 3.19743,-3.29253 4.95873,-2.90567 3.91499,0.85988 -0.86163,6.86042 -12.30388,15.45673 -7.0304,5.28167 -11.39733,7.90727 -21.9211,13.17922 -10.88299,5.45211 -15.83467,7.49857 -23.07544,9.537 -6.92612,1.94983 -15.80972,2.83569 -21.4861,2.14255 z M 860.60264,313.7783 c -2.05358,-0.8517 -1.91435,-2.82669 0.30165,-4.27859 0.6491,-0.42528 2.30122,-1.1474 3.67137,-1.60477 2.01847,-0.67378 2.86761,-0.8016 4.47479,-0.67356 2.04743,0.1631 3.52884,0.90904 3.71844,1.87246 0.16263,0.82625 -1.03945,1.70193 -2.85335,2.07845 -1.07412,0.22299 -2.51452,0.87797 -3.8279,1.74053 -2.32698,1.52838 -3.45699,1.70666 -5.48509,0.86549 z m 36.38125,-0.76475 c -1.0292,-0.73702 -2.54047,-1.47534 -3.55389,-1.73634 -2.32733,-0.59935 -3.16453,-1.16603 -3.16453,-2.14184 0,-0.62351 0.27432,-0.91109 1.32345,-1.38727 2.39793,-1.08848 6.07599,-0.58611 9.64753,1.31766 3.04098,1.62081 3.49773,3.74669 1.02679,4.7791 -1.9295,0.80621 -3.29253,0.59159 -5.27971,-0.83136 z m -63.93861,1.50494 c 2.01196,-1.52393 3.73404,-2.89355 3.82674,-3.04357 0.0927,-0.15002 -0.40925,-0.7948 -1.11549,-1.43282 -4.84703,-4.37905 -7.83952,-13.77378 -7.36218,-23.11378 0.96039,-18.79142 14.13391,-24.01319 21.45758,-8.50682 2.05724,4.35588 2.78203,7.7773 2.96548,13.99931 0.0871,2.95433 0.20867,5.37161 0.27016,5.37161 0.0615,0 0.77951,-0.41042 1.59559,-0.91207 2.36567,-1.45404 6.52276,-3.35894 9.89177,-4.53255 l 3.11399,-1.08482 -0.0191,-6.15497 c -0.0212,-6.83412 -0.51001,-10.74751 -2.00759,-16.07446 -3.68973,-13.12396 -11.35811,-22.874 -20.36651,-25.89314 -2.78658,-0.934 -7.18069,-1.14758 -9.9925,-0.48567 -4.28937,1.00985 -9.1528,4.51721 -12.61675,9.09932 -3.57305,4.72598 -6.60396,12.22632 -7.97127,19.7256 -0.86105,4.7225 -0.7846,15.7696 0.14427,20.84786 1.81684,9.93278 5.74841,18.74507 10.94807,24.54001 l 1.60843,1.79267 0.98525,-0.68514 c 0.54189,-0.37682 2.63139,-1.932 4.64344,-3.45601 z m 126.36364,0.94505 c 7.08727,-10.06559 10.50683,-22.88915 9.62524,-36.09511 -0.58162,-8.70889 -2.11794,-14.4967 -5.90912,-22.26339 -4.33653,-8.88343 -10.36955,-15.20803 -18.21202,-19.0945 -4.70672,-2.33206 -7.41441,-2.94088 -13.07849,-2.94105 -6.808,-1.6e-4 -11.22529,1.28494 -16.68863,4.85532 -3.63162,2.37324 -9.16172,7.83568 -11.4517,11.31264 -3.7754,5.73058 -6.92665,13.6579 -8.17816,20.57332 -0.54223,2.99623 -0.67864,5.01078 -0.70498,10.41056 -0.018,3.68225 0.0747,7.1987 0.20591,7.81429 0.22615,1.06102 0.33162,1.13982 2.02409,1.51242 3.15775,0.69523 10.4061,3.04624 13.87807,4.50108 l 3.37347,1.41375 -0.23306,-1.31507 c -0.39506,-2.2291 -0.22818,-9.26245 0.28976,-12.21384 0.63556,-3.62128 1.47623,-6.18385 3.16685,-9.65288 2.36896,-4.86165 5.81936,-8.34387 9.72775,-9.81689 2.55981,-0.96502 6.41303,-0.77969 8.87977,0.42719 7.79076,3.81168 12.60873,16.25541 11.14864,28.79105 -0.81662,7.00812 -2.30042,10.69937 -5.75349,14.31396 l -2.37342,2.48422 0.86008,0.32324 c 0.47304,0.1778 3.01049,1.11585 5.63867,2.08461 2.62818,0.96877 6.34163,2.43805 8.25197,3.26517 1.91034,0.82708 3.57484,1.51822 3.69883,1.53578 0.12396,0.0176 0.94077,-0.98392 1.81514,-2.22563 z"
       id="path9"
       style="stroke-width:0.891391" />
    <path
       d="m 876.3562,802.27504 c -31.23079,-5.53028 -50.25932,-16.21084 -64.48147,-36.19227 -7.58092,-10.65124 -7.88435,-11.7325 -3.29208,-11.7325 2.78221,0 8.20445,-2.70599 12.04982,-6.01341 19.61775,-16.87493 -2.90397,-53.52538 -54.25364,-88.28964 -35.88474,-24.29398 -47.55216,-44.89404 -44.98496,-79.42476 1.24991,-16.81342 10.79297,-52.55822 13.34948,-50.00171 0.51798,0.51797 -0.84576,9.37388 -3.03055,19.68103 -4.99037,23.54165 -3.1828,43.83596 5.57966,62.64432 7.81358,16.77153 9.06634,15.1697 13.24697,-16.94535 3.2887,-25.26382 11.69951,-49.56404 35.07179,-101.33338 20.74001,-45.93874 29.87409,-71.60457 35.74747,-100.44198 l 4.28207,-21.02524 16.22332,12.4349 c 19.29238,14.7873 31.7166,19.41807 46.6171,17.37501 11.44724,-1.56903 66.96577,-28.82047 75.22451,-36.92411 4.72402,-4.63523 5.00668,-4.13534 15.4184,27.2641 14.07418,42.44271 18.00165,51.97346 42.87501,104.0432 12.0302,25.18359 24.0212,54.57811 27.7695,68.07378 3.628,13.06334 7.037,25.17021 7.5758,26.90308 0.5399,1.73714 4.9538,3.15151 9.8347,3.15151 7.5096,0 9.1502,-1.05371 10.7948,-6.93342 3.907,-13.97077 1.7876,-49.06485 -3.9101,-64.74354 -6.9285,-19.06597 -4.9152,-21.61445 2.9357,-3.71728 9.0494,20.63037 12.7727,39.20607 12.3859,61.7966 l -0.35,20.43872 12.2388,5.73227 c 22.1047,10.35351 36.4944,28.59227 31.3493,39.73644 -1.6157,3.49934 -2.2272,2.74629 -2.9414,-3.62199 -1.6622,-14.82206 -27.3969,-32.6891 -55.8849,-38.7987 -10.9543,-2.34935 -14.1473,-2.07988 -22.2464,1.87772 -6.2309,3.04454 -10.3161,7.21741 -11.9777,12.23345 -1.3866,4.18687 -8.3759,13.26301 -15.5316,20.16951 -15.8293,15.27845 -19.7336,26.93785 -23.6227,70.54561 -2.9951,33.58673 -8.90137,58.84431 -14.89607,63.69972 -7.91306,6.40973 -44.6177,22.83923 -56.88414,25.46259 -19.30576,4.1283 -39.09108,5.21963 -52.28189,2.88392 z"
       fill="#ffb046"
       stroke="#000000"
       stroke-width="12.8583"
       id="path11" />
    <path
       d="m 1021.5906,867.72991 c -10.579,-3.26704 -25.22459,-19.93775 -28.63149,-32.59105 -3.23736,-12.0222 -0.90815,-27.69464 10.13419,-68.18609 4.1782,-15.32124 8.3346,-39.21855 9.8668,-56.72815 3.1596,-36.10759 5.7884,-46.50211 14.3265,-56.64971 7.4953,-8.90767 11.0247,-9.70814 11.0247,-2.4991 0,7.68914 9.0396,23.92405 16.6575,29.91598 12.8708,10.12443 39.1374,5.2774 58.083,-10.71719 6.2931,-5.31296 10.5532,-6.69293 20.6598,-6.69293 18.8048,0 24.2155,5.83728 32.7203,35.2991 5.0756,17.58359 9.6974,27.64027 17.3803,37.81817 22.9347,30.38397 20.8648,35.78224 -22.2981,58.1624 -25.4385,13.18992 -34.931,19.84683 -54.4284,38.16938 -12.9884,12.20671 -29.4506,25.15061 -36.5827,28.76431 -14.3175,7.2553 -36.0826,9.89622 -48.9115,5.93417 z"
       fill="#ffbc00"
       stroke="#000000"
       stroke-width="12.8583"
       id="path13" />
    <path
       d="m 756.15207,860.00155 c -7.50854,-1.29689 -24.52663,-7.02185 -37.81817,-12.72194 -23.0175,-9.87127 -30.00066,-11.49895 -86.50329,-20.16684 -22.48267,-3.44897 -29.68868,-9.12339 -29.68868,-23.37941 0,-5.91902 1.70532,-16.33118 3.78957,-23.13874 3.18147,-10.39095 3.32552,-16.28483 0.89763,-36.73424 -3.84484,-32.38425 -1.02242,-37.82887 25.29947,-48.80813 20.15169,-8.40556 22.97472,-10.62539 42.64773,-33.52969 12.24683,-14.2587 14.24087,-15.5842 23.44627,-15.5842 20.84608,0 28.44965,7.48653 53.30699,52.4878 10.16899,18.40991 27.31134,44.79598 38.09272,58.63394 22.75276,29.20466 34.38898,49.94823 34.38898,61.30456 0,4.41871 -2.55276,13.09632 -5.67281,19.28346 -9.66981,19.17562 -32.68554,27.44951 -62.18525,22.35343 z"
       fill="#ffbc00"
       stroke="#000000"
       stroke-width="12.8583"
       id="path15" />
    <path
       d="m 875.95508,396.19278 c -7.99605,-1.05095 -19.07489,-7.14236 -29.19307,-16.05039 -2.81903,-2.48199 -7.96164,-6.39306 -11.42764,-8.69124 -12.00971,-7.96236 -16.35881,-12.18443 -19.91012,-19.32893 -1.77832,-3.57769 -1.86621,-3.9453 -1.86621,-7.79968 0,-4.6642 0.81875,-6.96284 3.56146,-9.99874 0.91091,-1.00834 6.29857,-5.31813 11.97228,-9.57711 5.67397,-4.25933 12.62299,-9.80619 15.44157,-12.32526 9.15548,-8.1836 14.57158,-11.79846 21.42638,-14.2997 5.52511,-2.01642 9.17598,-2.63576 15.53695,-2.63576 12.09083,0 20.30589,2.65759 36.35361,11.76102 7.49821,4.25336 10.23942,5.44444 25.85035,11.23242 15.80972,5.86206 20.80151,9.2678 24.15938,16.48183 1.63366,3.51048 1.68866,8.81782 0.13343,12.89397 -1.24831,3.27195 -4.05779,7.6879 -6.86389,10.78851 -5.16909,5.71213 -15.44336,12.06499 -25.20677,15.58509 -4.83491,1.74356 -10.39541,4.60805 -17.05856,8.78787 -4.53326,2.84381 -15.57795,7.94997 -24.19058,11.1834 -6.21192,2.33223 -11.69773,2.91654 -18.71922,1.99368 z m 6.27379,-21.41657 c 10.14492,-1.01672 18.18349,-3.69374 32.73367,-10.90082 11.81807,-5.85377 16.59949,-8.6809 23.5568,-13.93067 12.09886,-9.12784 16.84819,-15.68492 11.36078,-15.68492 -1.22878,0 -1.90695,0.34009 -2.99275,1.50084 -0.77217,0.82544 -2.34632,2.51114 -3.49809,3.74598 -2.52335,2.70537 -14.71865,11.66029 -21.26236,15.61272 -9.83383,5.9397 -22.60658,11.50608 -31.90022,13.90214 -4.82118,1.24314 -5.76436,1.33967 -13.07671,1.3386 -8.8541,-8.9e-4 -12.39837,-0.6753 -19.63557,-3.73386 -10.43017,-4.40819 -25.2656,-15.98621 -30.17984,-23.55323 -1.94867,-3.00069 -3.30047,-3.90376 -4.91567,-3.28398 -0.584,0.22411 -0.68661,0.7755 -0.53482,2.87394 0.23384,3.23299 1.42087,4.78624 8.43809,11.04166 11.95712,10.65926 22.324,16.74925 33.34249,19.58744 7.47271,1.92505 11.19053,2.22206 18.56412,1.48309 z M 866.01,313.14809 c 1.55708,-0.82605 3.45824,-1.63963 4.22493,-1.80801 1.67599,-0.3681 2.94507,-1.64827 2.57924,-2.6017 -1.11834,-2.91432 -10.66639,-1.52562 -13.21755,1.92246 -1.05862,1.43068 -0.66889,2.55633 1.16077,3.35279 1.93253,0.84127 2.08247,0.81656 5.25306,-0.86548 z m 36.25556,0.8561 c 1.25927,-0.52614 1.54559,-0.88496 1.54559,-1.93655 0,-1.48113 -0.74958,-2.25442 -3.55247,-3.66469 -2.29907,-1.15675 -6.78045,-1.64283 -8.60415,-0.93319 -2.58985,1.0078 -1.79936,3.03189 1.57856,4.04228 1.03785,0.31042 2.41755,0.94157 3.06594,1.40251 2.50464,1.78065 3.76275,2.01036 5.96653,1.08955 z"
       fill="#ff942a"
       stroke="#000000"
       stroke-width="2.27305"
       id="path17" />
    <path
       d="m 858.18073,789.61728 c -17.03627,-5.99496 -33.71331,-17.00507 -38.06063,-25.12832 -2.04146,-3.81444 -1.0743,-5.92989 5.07746,-11.10585 20.9058,-17.59071 5.93167,-53.02976 -36.13166,-85.50939 -10.77514,-8.32007 -25.25936,-19.4867 -32.18636,-24.81544 l -12.59625,-9.68764 5.03565,-5.43981 c 3.36562,-3.63572 6.03338,-12.11044 8.04409,-25.5553 4.22564,-28.25354 10.26705,-46.58946 32.00095,-97.126 22.88469,-53.20805 31.37341,-76.06778 37.19241,-100.15674 l 4.40036,-18.21291 7.93873,5.9487 c 15.86053,11.88492 30.1112,17.54615 43.86002,17.42403 11.08802,-0.0983 18.73616,-2.82803 47.22324,-16.85443 18.69605,-9.2054 34.58242,-16.73676 35.30356,-16.73676 0.72086,0 1.31061,1.15275 1.31061,2.56168 0,6.81986 25.06147,70.35841 44.43849,112.66295 11.9384,26.06518 25.9253,60.35255 31.0829,76.19257 l 9.3774,28.80086 -10.3036,10.71096 c -24.6274,25.60254 -37.4072,43.6969 -41.95333,59.39786 -1.34315,4.63916 -4.15513,23.1842 -6.24883,41.21081 -2.09361,18.02661 -5.52912,38.77642 -7.6345,46.10989 -4.43262,15.43979 -8.9157,18.91711 -40.18838,31.17463 -16.63158,6.51839 -24.5926,8.07904 -45.38252,8.896 -21.45757,0.84325 -27.65274,0.13186 -41.60034,-4.77599 z"
       fill="url(#a)"
       stroke="#000000"
       stroke-width="12.8583"
       id="path19"
       style="fill:url(#a)" />
  </g>
</svg>
