<?xml version="1.0" encoding="UTF-8" standalone="no"?>
<svg
   width="2490"
   height="2500"
   viewBox="0 0 256 257"
   preserveAspectRatio="xMinYMin meet"
   version="1.1"
   id="svg395"
   sodipodi:docname="vim.svg"
   inkscape:version="1.2.2 (b0a8486541, 2022-12-01)"
   xmlns:inkscape="http://www.inkscape.org/namespaces/inkscape"
   xmlns:sodipodi="http://sodipodi.sourceforge.net/DTD/sodipodi-0.dtd"
   xmlns="http://www.w3.org/2000/svg"
   xmlns:svg="http://www.w3.org/2000/svg">
  <defs
     id="defs399" />
  <sodipodi:namedview
     id="namedview397"
     pagecolor="#505050"
     bordercolor="#ffffff"
     borderopacity="1"
     inkscape:showpageshadow="0"
     inkscape:pageopacity="0"
     inkscape:pagecheckerboard="1"
     inkscape:deskcolor="#505050"
     showgrid="false"
     inkscape:zoom="0.1794"
     inkscape:cx="947.60312"
     inkscape:cy="1661.0925"
     inkscape:window-width="1438"
     inkscape:window-height="1055"
     inkscape:window-x="0"
     inkscape:window-y="23"
     inkscape:window-maximized="1"
     inkscape:current-layer="svg395" />
  <path
     d="M 128.192,43.437016 43.376113,127.979 128.192,212.9117 212.61852,127.979 128.192,43.437016"
     fill="#019833"
     id="path363"
     style="stroke-width:0.671326" />
  <path
     d="M 128.17723,51.20022 V 44.063363 L 43.932642,127.99444 h 7.218759 L 128.17723,51.20022"
     fill="#66fe98"
     id="path365"
     style="stroke-width:0.671326" />
  <path
     d="m 128.17723,51.20022 v -7.136857 l 84.50641,83.931077 h -7.81155 L 128.17723,51.20022"
     fill="#45fe02"
     id="path367"
     style="stroke-width:0.671326" />
  <path
     d="m 128.17723,205.14849 v 7.90083 L 43.932642,127.99444 h 7.218759 l 77.025829,77.15405"
     fill="#017d17"
     id="path369"
     style="stroke-width:0.671326" />
  <path
     d="m 128.17723,205.14849 v 7.90083 l 84.50641,-85.05488 h -7.81155 l -76.69486,77.15405"
     fill="#005d04"
     id="path371"
     style="stroke-width:0.671326" />
  <path
     d="M 85.858237,196.92811 H 69.527582 l -6.377588,-6.21512 V 72.034123 H 58.088203 L 53.754799,67.694678 V 54.428622 l 4.489151,-4.869121 h 57.11298 l 5.13497,5.141008 v 12.591374 l -4.26694,5.200755 h -4.31528 v 40.117042 l 40.60644,-40.117042 h -2.26706 l -4.72278,-5.093343 V 54.047981 l 4.6402,-4.259558 h 57.64803 l 4.56233,4.568368 V 66.984416 L 85.858237,196.92811"
     id="path373"
     style="stroke-width:0.671326" />
  <path
     d="M 128.17723,214.21541 42.070386,127.99444 128.17723,42.126589 213.92961,127.99444 Z m -83.469208,-86.22097 83.469208,83.58132 83.1134,-83.58132 -83.1134,-83.226186 z"
     id="path375"
     style="stroke-width:0.671326" />
  <path
     d="m 114.62385,57.393865 2.53693,-1.638705 -2.59198,-2.690671 H 59.629565 l -2.791369,2.795399 v 10.57337 l 3.094809,3.098837 1.476244,-3.098837 -1.941473,-1.944829 v -7.453723 l 1.456104,-1.296328 51.86926,0.06378 1.83071,1.591712"
     fill="#fefefe"
     id="path377"
     style="stroke-width:0.671326" />
  <path
     d="M 69.902182,66.182183 V 189.93022 l 1.740075,1.65684 -1.394342,2.63494 -3.659393,-3.60434 V 69.390445 l 3.31366,-3.208262"
     fill="#fefefe"
     id="path379"
     style="stroke-width:0.671326" />
  <path
     d="m 61.025922,66.182183 -1.092917,3.349912 h 6.636719 l 3.839309,-3.349912 h -9.383111"
     fill="#808080"
     id="path381"
     style="stroke-width:0.671326" />
  <path
     d="m 153.86683,66.225147 -2.32077,-1.639376 v -6.643433 l 2.42751,-2.430869 h 50.65081 l 1.94214,2.592658 2.76385,-2.181135 -2.84508,-2.599371 h -54.45387 l -2.71081,2.714167 v 10.654601 l 2.85448,2.58326 m -44.049,51.228821 -5.28937,12.85185 59.71302,-59.955379 -0.29202,-7.252996 -54.13163,54.356525"
     fill="#fefefe"
     id="path383"
     style="stroke-width:0.671326" />
  <path
     d="m 114.50435,57.346201 2.65643,-1.591041 v 10.427023 l -3.03237,3.036403 h -5.89289 l -0.10943,51.285884 -5.26923,12.8223 V 66.182183 h 9.84095 l 1.83071,-1.489671 -0.0242,-7.346311 m 91.88226,0.03424 2.94376,-1.457447 v 9.5214 L 83.966444,194.222 H 70.247915 l 1.338622,-2.53089 10.536448,6.7e-4 124.281745,-128.49968 -0.0181,-5.811662 m -44.12888,8.767507 -3.05318,3.067284 -7.02945,0.06042 1.71658,-3.081382 8.36605,-0.04632"
     fill="#808080"
     id="path385"
     style="stroke-width:0.671326" />
  <path
     d="m 153.49223,55.412114 -1.94013,1.942143 v 7.132158 l 1.69912,1.701138 h 8.97696 v 6.891152 L 102.84276,133.35229 V 66.272811 h 9.86916 l 2.02471,-2.027402 v -7.217416 l -1.86897,-1.446034 H 60.929922 l -1.699124,1.701809 v 7.372492 l 1.72732,1.730005 H 69.99214 V 189.91142 l 1.699123,1.70115 H 81.957167 L 206.40674,63.025612 v -5.671355 l -1.94012,-1.942143 h -50.97439"
     fill="#cccccc"
     id="path387"
     style="stroke-width:0.671326" />
  <path
     d="M 82.026985,191.77704 H 71.62346 l -1.795124,-1.79781 V 66.550069 h -8.938022 l -1.823319,-1.826005 v -7.508771 l 1.795123,-1.797137 h 52.061932 l 1.97705,1.529278 v 7.36578 l -2.12071,2.1234 h -9.77382 v 66.515556 l 59.05781,-59.941269 v -6.658873 h -8.88096 l -1.79513,-1.797809 v -7.267766 l 2.03546,-2.038814 h 51.11067 l 2.03613,2.038814 v 5.805619 l -0.0456,0.04766 z M 71.759739,191.44877 H 81.88802 L 206.24294,62.959822 v -5.537761 l -1.84412,-1.846144 h -50.83879 l -1.84413,1.846144 v 6.99655 l 1.60313,1.605139 h 9.07362 v 7.122088 l -0.047,0.04766 -59.6667,60.558892 V 66.109004 h 9.96514 l 1.92872,-1.932074 v -7.068382 l -1.76088,-1.36279 H 60.997726 l -1.603124,1.605809 v 7.236885 l 1.631991,1.634006 h 9.12935 V 189.84295 Z"
     fill="#808080"
     id="path389"
     style="stroke-width:0.671326" />
  <path
     d="m 132.40792,138.6759 a 0.55988514,0.55988514 0 0 0 -0.25511,0.12755 l -2.4067,2.06969 a 0.5639131,0.5639131 0 0 0 -0.15574,0.24101 l -2.40737,6.7495 a 0.56055647,0.56055647 0 0 0 0.12754,0.58137 l 1.84078,1.84279 a 0.56055647,0.56055647 0 0 0 0.39676,0.15641 h 7.43358 a 0.55719984,0.55719984 0 0 0 0.39608,-0.15641 l 1.94013,-1.95625 c 0.0671,-0.0671 0.11547,-0.15037 0.14165,-0.241 l 2.06768,-7.10396 a 0.56055647,0.56055647 0 0 0 -0.14165,-0.55251 l -1.60044,-1.60245 a 0.55518587,0.55518587 0 0 0 -0.39608,-0.15574 h -6.86765 a 0.53437479,0.53437479 0 0 0 -0.11346,0 z m -13.62119,19.02736 a 0.55921382,0.55921382 0 0 0 -0.42495,0.41153 l -0.92038,3.65804 a 0.55921382,0.55921382 0 0 0 0.53773,0.69483 h 4.37569 l -10.84659,31.00851 a 0.55921382,0.55921382 0 0 0 0.5243,0.73778 h 15.78756 a 0.55988514,0.55988514 0 0 0 0.5384,-0.38332 l 1.03384,-3.33179 a 0.55988514,0.55988514 0 0 0 -0.53841,-0.72302 h -3.56809 l 10.73315,-31.33477 a 0.55921382,0.55921382 0 0 0 -0.52431,-0.73779 h -16.59515 a 0.63305958,0.63305958 0 0 0 -0.11279,0 z m 50.23862,0.11345 a 0.56055647,0.56055647 0 0 0 -0.31217,0.18462 l -3.28479,3.71445 h -5.22493 l -3.4835,-3.6151 a 0.55585719,0.55585719 0 0 0 -0.39608,-0.17051 h -12.47456 a 0.55854249,0.55854249 0 0 0 -0.52431,0.36856 l -1.14663,3.43181 a 0.55988514,0.55988514 0 0 0 0.52364,0.73712 h 3.34186 l -10.39346,30.66814 a 0.56055647,0.56055647 0 0 0 0.5243,0.73779 h 13.2815 a 0.55921382,0.55921382 0 0 0 0.5243,-0.36856 l 1.01908,-2.99209 a 0.55921382,0.55921382 0 0 0 -0.52363,-0.73712 h -2.32212 l 6.62665,-20.8856 h 11.99322 l -7.56113,24.26035 a 0.55854249,0.55854249 0 0 0 0.53773,0.72302 h 12.81426 a 0.55988514,0.55988514 0 0 0 0.5102,-0.34036 l 1.14662,-2.75109 a 0.55854249,0.55854249 0 0 0 -0.50953,-0.76532 h -2.32212 l 6.74011,-21.24005 h 11.41253 l -7.67459,24.3738 a 0.55921382,0.55921382 0 0 0 0.5384,0.72302 h 14.07433 a 0.56055647,0.56055647 0 0 0 0.5243,-0.35446 l 1.14663,-2.9921 a 0.55921382,0.55921382 0 0 0 -0.52363,-0.75121 h -2.79003 l 8.48219,-27.57736 a 0.56122779,0.56122779 0 0 0 -0.0853,-0.51089 l -2.6336,-3.54459 a 0.55854249,0.55854249 0 0 0 -0.45315,-0.21281 h -10.06719 a 0.55652852,0.55652852 0 0 0 -0.41085,0.17051 l -3.17202,3.48754 h -5.55051 l -3.2848,-3.60099 a 0.55719984,0.55719984 0 0 0 -0.41085,-0.17052 h -8.11363 a 0.63305958,0.63305958 0 0 0 -0.11278,0 z"
     fill="#cccccc"
     id="path391"
     style="stroke-width:0.671326" />
  <path
     d="m 128.24101,151.23303 c 0.3511,0.33835 0.81028,0.52364 1.27618,0.52364 l 0.0309,-6.8e-4 h 7.41076 c 0.49812,0.0154 0.96939,-0.17655 1.35138,-0.54377 l 1.93543,-1.95288 c 0.22421,-0.22423 0.38869,-0.50417 0.47395,-0.80224 l 2.06701,-7.10262 a 1.8696405,1.8696405 0 0 0 -0.47328,-1.84748 l -1.61723,-1.61991 a 1.821305,1.821305 0 0 0 -1.30707,-0.52364 h -6.82066 a 1.850172,1.850172 0 0 0 -0.2927,0.007 l -0.13762,0.0215 c -0.31552,0.0665 -0.61024,0.21348 -0.8405,0.41622 l -2.40737,2.07037 -0.0275,0.0249 c -0.23429,0.21348 -0.41085,0.48336 -0.51289,0.78343 l -2.402,6.73407 a 1.8864236,1.8864236 0 0 0 0.43434,1.95154 z m 10.84458,-11.24537 1.05734,1.05869 -1.89045,6.49574 -1.57493,1.58969 -6.82604,6.8e-4 -1.2735,-1.27552 2.18651,-6.1292 2.02337,-1.74008 z m 65.20245,20.91715 -2.63361,-3.5446 -0.0235,-0.0302 a 1.8743397,1.8743397 0 0 0 -1.4937,-0.71161 h -10.03496 a 1.8548713,1.8548713 0 0 0 -1.37555,0.56929 l -2.80882,3.08876 h -4.39114 l -2.89476,-3.17336 -0.0268,-0.0288 a 1.8917941,1.8917941 0 0 0 -1.35339,-0.56929 h -8.06665 a 1.852186,1.852186 0 0 0 -0.29269,0.007 l -0.13561,0.0208 a 1.8662838,1.8662838 0 0 0 -1.02645,0.59949 l -2.89342,3.27204 h -4.07561 l -3.09817,-3.21565 a 1.8864236,1.8864236 0 0 0 -1.33929,-0.56995 h -12.47858 a 1.877025,1.877025 0 0 0 -1.75351,1.23322 l -1.15736,3.46068 a 1.8743397,1.8743397 0 0 0 1.7676,2.46712 h 1.51182 l -9.80806,28.94083 a 1.8756823,1.8756823 0 0 0 1.17952,2.36843 c 0.18596,0.0617 0.3793,0.0947 0.58942,0.0967 h 13.28553 a 1.8844096,1.8844096 0 0 0 1.76223,-1.25739 l 1.02176,-2.99814 a 1.875011,1.875011 0 0 0 -1.76827,-2.46644 h -0.52968 l 5.7942,-18.26072 h 9.24952 l -7.0328,22.56391 a 1.8736684,1.8736684 0 0 0 1.23994,2.33621 2.0811079,2.0811079 0 0 0 0.55317,0.0826 h 12.82567 a 1.8729971,1.8729971 0 0 0 1.70986,-1.14729 l 1.15602,-2.77258 a 1.8729971,1.8729971 0 0 0 -1.73,-2.5611 h -0.529 l 5.90699,-18.61517 h 8.66344 l -7.14088,22.6787 a 1.8743397,1.8743397 0 0 0 1.78371,2.41744 h 14.07567 a 1.8911228,1.8911228 0 0 0 1.7582,-1.19697 l 1.15401,-3.01089 a 1.8736684,1.8736684 0 0 0 -1.75618,-2.51411 h -1.0137 l 7.95319,-25.85811 a 1.8716544,1.8716544 0 0 0 -0.27928,-1.70046 z m -11.22657,30.18278 h 3.47008 l -0.56525,1.47356 H 183.42863 L 191.33147,167.465 H 177.1692 l -7.57256,23.86427 h 2.97532 l -0.51357,1.23188 h -11.28833 l 7.7867,-24.98269 h -14.73693 l -7.45909,23.50913 h 3.05722 l -0.50216,1.47356 h -11.68508 l 10.64319,-31.40593 h -4.11992 l 0.6391,-1.91261 h 11.6052 l 3.64731,3.7856 h 6.37422 l 3.44726,-3.89905 7.46111,-6.7e-4 3.43987,3.77217 h 6.71056 l 3.32642,-3.65805 h 9.37841 l 2.17241,2.9243 z m -63.65437,-2.54164 a 2.0206886,2.0206886 0 0 0 -0.55318,-0.0826 h -1.73202 l 10.14104,-29.60477 a 1.8743397,1.8743397 0 0 0 -1.76827,-2.46712 h -16.54816 a 1.8602419,1.8602419 0 0 0 -0.29337,0.007 l -0.14299,0.0229 a 1.8588992,1.8588992 0 0 0 -1.4212,1.37353 l -0.92106,3.66141 a 1.8756823,1.8756823 0 0 0 1.36548,2.26907 c 0.14232,0.0349 0.28934,0.0537 0.44576,0.0544 h 2.5262 l -10.24107,29.27984 a 1.8743397,1.8743397 0 0 0 1.76827,2.46645 h 15.79628 c 0.80828,0 1.51921,-0.51222 1.78304,-1.3064 l 1.03518,-3.33715 a 1.8736684,1.8736684 0 0 0 -1.23993,-2.33622 z m -16.30783,4.35556 11.10438,-31.74629 h -5.25378 l 0.53839,-2.13952 h 14.94639 l -10.98556,32.07189 h 4.38643 l -0.56257,1.81392 z"
     id="path393"
     style="stroke-width:0.671326" />
</svg>
